<?xml version="1.0" standalone="no"?>
<!DOCTYPE svg PUBLIC "-//W3C//DTD SVG 20010904//EN"
 "http://www.w3.org/TR/2001/REC-SVG-20010904/DTD/svg10.dtd">
<svg version="1.0" xmlns="http://www.w3.org/2000/svg"
 width="1671.000000pt" height="1668.000000pt" viewBox="0 0 1671.000000 1668.000000"
 preserveAspectRatio="xMidYMid meet">

<g transform="translate(0.000000,1668.000000) scale(0.100000,-0.100000)"
fill="#000000" stroke="none">
<path d="M8976 16579 c-94 -14 -205 -47 -286 -86 -61 -30 -97 -58 -196 -155
-66 -65 -127 -118 -135 -118 -8 0 -70 51 -137 114 -177 165 -287 217 -501 237
-312 30 -577 -61 -810 -277 -126 -117 -246 -312 -318 -519 -27 -79 -28 -85
-31 -344 l-3 -263 36 -122 c56 -184 182 -411 349 -626 44 -58 173 -198 286
-311 284 -286 569 -525 859 -721 l115 -78 155 0 155 0 75 52 c394 269 725 556
1059 918 222 241 426 578 478 790 25 101 39 376 27 512 -29 308 -201 612 -454
800 -89 67 -158 107 -202 119 -18 4 -57 17 -88 28 -66 24 -275 61 -333 60 -22
-1 -68 -5 -100 -10z m-536 -574 l0 -105 26 0 c45 0 146 -30 223 -67 92 -44
215 -158 259 -240 34 -65 57 -142 67 -220 l6 -53 -135 0 -135 0 -6 48 c-20
143 -94 238 -219 282 -94 34 -86 68 -86 -348 l0 -369 83 -27 c105 -36 239
-105 299 -155 156 -128 228 -283 229 -486 0 -162 -41 -265 -151 -373 -97 -95
-226 -156 -388 -183 l-72 -12 0 -123 0 -124 -110 0 -110 0 0 124 0 123 -77 13
c-332 53 -553 269 -553 540 l0 50 129 0 c143 0 141 1 141 -76 0 -122 111 -239
265 -279 106 -27 96 -70 93 381 l-3 396 -40 15 c-152 58 -198 79 -260 118
-142 88 -238 220 -270 370 -42 201 4 371 138 503 98 97 209 146 400 177 l37 6
0 99 0 100 110 0 110 0 0 -105z"/>
<path d="M8132 15664 c-29 -7 -65 -20 -81 -28 -191 -99 -206 -369 -29 -520 39
-34 152 -97 196 -111 l22 -6 0 340 0 341 -27 -1 c-16 0 -52 -7 -81 -15z"/>
<path d="M8420 14289 l0 -362 48 6 c110 13 222 79 275 162 81 127 52 300 -72
418 -52 50 -203 137 -237 137 -12 0 -14 -60 -14 -361z"/>
<path d="M1903 15347 c-4 -6 -9 -163 -11 -348 l-3 -336 23 -7 c70 -18 340 5
399 34 48 25 94 81 121 150 18 44 22 76 22 165 1 101 -2 115 -28 172 -30 65
-95 136 -142 153 -14 6 -71 12 -127 15 -56 3 -134 7 -174 10 -51 3 -74 1 -80
-8z m269 -111 c118 -28 147 -74 148 -233 0 -56 -5 -114 -11 -130 -26 -68 -100
-112 -190 -113 -87 0 -93 11 -97 183 -5 178 4 263 29 288 22 22 44 23 121 5z"/>
<path d="M2827 15336 c-87 -31 -162 -107 -193 -196 -19 -51 -17 -217 2 -277
27 -83 83 -154 149 -188 52 -27 68 -30 149 -30 78 0 99 4 148 27 63 29 126 89
154 146 16 31 19 61 19 183 l0 147 -39 56 c-41 60 -110 116 -165 135 -46 15
-177 13 -224 -3z m214 -125 c27 -17 52 -43 63 -65 19 -41 33 -192 22 -250 -14
-72 -107 -146 -186 -146 -77 0 -155 60 -181 137 -19 57 -6 205 23 261 47 91
169 121 259 63z"/>
<path d="M3442 15338 c-9 -9 -12 -99 -12 -345 l0 -332 34 -7 c19 -3 48 -2 63
3 l28 10 5 206 c3 113 9 209 13 214 15 14 61 -48 166 -223 56 -93 108 -178
116 -188 16 -21 101 -33 123 -18 16 11 29 480 18 605 l-8 77 -59 0 -59 0 -1
-177 c-1 -195 -7 -238 -29 -238 -8 0 -69 91 -143 213 l-129 212 -57 0 c-31 0
-62 -5 -69 -12z"/>
<path d="M4375 15326 c-41 -62 -229 -610 -223 -650 4 -27 37 -32 77 -12 19 10
38 35 55 71 l27 55 125 0 c119 0 126 -1 149 -25 14 -13 25 -30 25 -38 0 -46
91 -95 124 -68 18 15 -9 117 -99 375 -111 321 -109 316 -190 316 -47 0 -57 -3
-70 -24z m116 -248 c55 -151 49 -178 -45 -178 -60 0 -76 12 -76 55 0 60 61
210 83 202 6 -2 23 -37 38 -79z"/>
<path d="M4862 15341 c-8 -5 -12 -21 -10 -37 4 -36 37 -54 103 -54 28 0 55 -4
62 -8 26 -16 33 -72 39 -319 5 -169 11 -261 18 -265 18 -12 91 -9 108 5 14 10
17 51 20 289 3 153 7 280 10 283 3 3 39 9 79 12 98 8 109 14 109 63 l0 40
-262 0 c-145 0 -269 -4 -276 -9z"/>
<path d="M5573 15340 c-14 -6 -24 -21 -28 -42 -9 -49 -2 -625 8 -635 13 -13
474 -10 487 3 6 6 12 24 13 40 2 27 -1 29 -43 36 -25 4 -105 11 -179 16 -156
10 -161 13 -161 103 0 90 7 94 207 105 l123 6 6 34 c12 63 10 64 -151 64 -132
0 -147 2 -165 20 -26 26 -27 99 -2 129 16 20 30 22 180 28 l162 6 0 49 0 48
-217 -1 c-120 0 -228 -4 -240 -9z"/>
<path d="M10813 15340 c-30 -12 -35 -64 -31 -395 l3 -280 195 1 c216 1 255 8
295 56 30 36 55 91 55 123 0 25 -43 110 -71 141 -26 27 -24 47 9 96 53 80 30
193 -47 233 -16 8 -57 19 -92 24 -77 13 -285 13 -316 1z m310 -122 c31 -17 43
-30 45 -51 7 -62 -53 -97 -166 -97 -61 0 -82 15 -89 65 -6 50 10 93 39 105 36
15 124 4 171 -22z m-18 -269 c58 -16 85 -45 85 -90 0 -66 -64 -102 -187 -103
-71 -1 -84 14 -91 103 -6 93 1 101 87 101 36 0 84 -5 106 -11z"/>
<path d="M11510 15325 c-6 -16 -10 -158 -10 -345 l0 -319 34 -7 c19 -3 48 -2
63 3 l28 10 3 292 c1 160 -1 313 -6 339 l-7 47 -48 3 c-43 3 -48 1 -57 -23z"/>
<path d="M11786 15334 c-19 -18 -20 -28 -6 -53 7 -14 31 -22 89 -31 44 -7 88
-18 97 -25 15 -10 18 -47 25 -285 5 -150 11 -275 15 -279 9 -9 101 -7 111 2 4
5 10 132 13 283 4 220 8 276 19 283 8 5 44 12 80 16 83 9 101 18 101 53 0 51
-5 52 -276 52 -216 0 -255 -2 -268 -16z"/>
<path d="M12631 15336 c-44 -16 -106 -69 -137 -117 -59 -94 -72 -289 -26 -392
54 -121 131 -178 252 -185 167 -10 298 80 288 196 -3 32 -7 37 -32 40 -24 3
-37 -6 -80 -52 -62 -66 -109 -89 -167 -80 -55 9 -99 41 -129 94 -22 40 -25 56
-24 150 1 174 44 239 170 255 49 7 51 6 119 -50 93 -76 113 -85 132 -60 18 25
12 85 -13 118 -24 32 -73 66 -121 83 -47 16 -186 17 -232 0z"/>
<path d="M13355 15317 c-47 -26 -70 -48 -107 -102 l-48 -69 0 -140 c0 -115 4
-148 19 -181 25 -54 89 -119 153 -152 47 -25 64 -28 148 -28 87 0 100 3 148
30 66 36 96 70 136 155 29 60 31 73 31 170 0 92 -3 112 -26 161 -35 74 -88
132 -152 163 -44 23 -64 26 -146 26 -90 0 -100 -2 -156 -33z m260 -105 c68
-47 80 -80 80 -212 0 -97 -3 -121 -21 -155 -37 -72 -121 -106 -208 -86 -55 13
-87 39 -114 93 -19 39 -23 61 -23 151 0 116 8 142 59 190 65 62 154 69 227 19z"/>
<path d="M14020 15005 l0 -345 25 -6 c29 -7 92 3 100 16 3 5 2 160 -1 344 l-7
336 -59 0 -58 0 0 -345z"/>
<path d="M14332 15338 c-9 -9 -12 -99 -12 -345 l0 -332 35 -7 c76 -14 82 2 94
243 6 102 14 190 19 195 10 10 49 -48 180 -267 80 -135 119 -175 171 -175 51
0 51 1 51 357 l0 333 -58 0 -59 0 -9 -205 c-5 -112 -13 -207 -17 -211 -10 -10
-22 7 -142 208 -58 98 -118 187 -132 198 -29 23 -101 28 -121 8z"/>
<path d="M2205 12768 c-3 -7 -4 -674 -3 -1483 l3 -1470 1483 -3 1482 -2 -2
1482 -3 1483 -1478 3 c-1177 2 -1479 0 -1482 -10z m2543 -1475 l-3 -1058
-1057 -3 -1058 -2 0 1060 0 1060 1060 0 1060 0 -2 -1057z"/>
<path d="M3050 11295 l0 -635 635 0 635 0 0 635 0 635 -635 0 -635 0 0 -635z"/>
<path d="M6020 12565 l0 -215 -215 0 -215 0 2 -422 3 -423 213 -3 212 -2 0
-210 0 -210 -215 0 -215 0 0 -845 0 -845 -420 0 -420 0 0 -215 0 -215 420 0
420 0 0 215 0 215 425 0 425 0 0 -425 0 -425 -210 0 -210 0 0 -210 0 -210
-415 0 c-228 0 -418 0 -422 0 -5 0 -9 94 -11 210 l-2 210 -425 0 -425 0 0 210
0 210 -210 0 -210 0 -2 213 -3 212 -210 0 -210 0 -2 -395 c-2 -217 -3 -407 -3
-422 l0 -28 -210 0 -210 0 -2 423 -3 422 -420 0 -420 0 0 -210 0 -210 212 -3
213 -2 0 -420 0 -420 -197 -2 c-109 0 -205 -1 -213 -2 -13 -1 -15 -31 -15
-211 l0 -210 423 -3 422 -2 0 210 0 210 213 2 212 3 3 213 2 212 210 0 210 0
2 -212 3 -213 180 -2 c99 -1 192 -3 208 -3 l27 0 0 -210 0 -210 215 0 215 0 0
-210 0 -210 210 0 210 0 0 210 0 210 423 2 422 3 3 207 2 208 423 2 422 3 3
213 2 212 210 0 210 0 0 210 0 210 -210 0 -210 0 -2 213 -3 212 -212 3 -213 2
0 210 0 210 213 2 212 3 3 208 2 207 -215 0 -215 0 0 215 0 215 -210 0 -210 0
0 210 0 210 635 0 635 0 0 210 0 210 28 0 c15 0 108 2 207 3 l180 2 3 423 2
422 425 0 425 0 0 -420 0 -420 -207 -2 -208 -3 -3 -212 -2 -213 -215 0 -215 0
0 -425 0 -425 -210 0 -210 0 -2 213 -3 212 -210 0 -210 0 0 -210 0 -210 213
-3 212 -2 0 -420 0 -420 210 0 210 0 0 -425 0 -425 215 0 215 0 0 -210 0 -210
-212 -2 -213 -3 -3 -212 -2 -213 -210 0 -210 0 0 -210 0 -210 -425 0 -425 0 0
-425 0 -425 213 2 212 3 3 208 2 207 210 0 210 0 0 -420 0 -420 -635 0 -635 0
0 -425 0 -425 -215 0 -215 0 0 210 0 210 -210 0 -210 0 0 215 0 215 210 0 210
0 0 420 0 420 213 2 212 3 0 210 0 210 -210 0 -210 0 -3 -212 -2 -213 -420 0
-420 0 0 -210 0 -210 -425 0 -425 0 -2 -422 -3 -423 -207 -3 -208 -2 -2 212
-3 213 -212 3 -213 2 0 210 0 210 -210 0 -210 0 0 210 0 210 -215 0 -215 0 2
-207 3 -208 213 -3 212 -2 0 -210 0 -210 210 0 210 0 0 -215 0 -215 -210 0
-210 0 0 -210 0 -210 -213 -2 -212 -3 0 -210 0 -210 210 0 210 0 3 212 2 213
210 0 210 0 0 -425 0 -425 213 2 212 3 3 208 2 207 210 0 210 0 0 -420 0 -420
210 0 210 0 -2 422 -3 423 -207 3 -208 2 0 210 0 210 210 0 210 0 2 423 3 422
213 3 212 2 0 -215 0 -215 210 0 210 0 0 -210 0 -210 -210 0 -210 0 0 -215 0
-215 210 0 210 0 0 -210 0 -210 -210 0 -210 0 0 -210 0 -210 420 0 420 0 2
-423 3 -422 423 -3 422 -2 0 210 0 210 -210 0 -210 0 0 215 0 215 210 0 210 0
0 210 0 210 -210 0 -210 0 0 210 0 210 419 0 c271 0 421 -4 423 -10 2 -5 2
-766 0 -1690 l-2 -1680 -208 -2 -207 -3 -3 -212 -2 -213 -210 0 -210 0 -2 213
-3 212 -210 0 -210 0 -3 -423 -2 -422 425 0 425 0 0 210 0 210 425 0 425 0 0
-210 0 -210 425 0 425 0 0 210 0 210 -425 0 -425 0 0 850 0 850 425 0 425 0 0
-215 0 -215 -215 0 -215 0 0 -420 0 -420 425 0 425 0 0 -215 0 -215 210 0 210
0 0 -210 0 -210 425 0 425 0 0 210 0 210 210 0 210 0 0 -210 0 -210 640 0 640
0 -2 423 -3 422 -422 3 -423 2 0 210 0 210 210 0 210 0 0 210 0 210 215 0 215
0 0 -210 0 -210 210 0 210 0 0 210 0 210 210 0 210 0 0 -420 0 -420 -207 -2
-208 -3 -3 -212 -2 -213 210 0 210 0 0 215 0 215 425 0 425 0 0 635 0 635 635
0 635 0 0 210 0 210 -210 0 -210 0 0 210 0 210 210 0 210 0 0 425 0 425 -210
0 -210 0 0 210 0 210 208 2 207 3 3 423 2 422 -635 0 -635 0 0 -210 0 -210
-425 0 -425 0 0 210 0 210 -420 0 -420 0 0 -420 0 -420 -215 0 -215 0 0 210 0
210 -210 0 -210 0 -2 -422 -3 -423 -212 -3 -213 -2 0 425 0 425 -210 0 -210 0
0 635 0 635 210 0 210 0 0 210 0 210 215 0 215 0 0 -420 0 -420 -212 -2 -213
-3 0 -210 0 -210 422 -3 423 -2 2 212 3 213 423 3 422 2 0 420 0 420 -635 0
-635 0 -2 213 -3 212 -212 3 -213 2 0 210 0 210 -420 0 -420 0 -2 423 -3 422
-210 0 -210 0 -3 -207 -2 -208 -210 0 -210 0 0 210 0 210 -210 0 -210 0 0 210
0 210 210 0 210 0 0 215 0 215 210 0 210 0 0 210 0 210 215 0 215 0 0 -210 0
-210 420 0 420 0 0 420 0 420 215 0 215 0 0 -420 0 -420 210 0 210 0 0 420 0
420 -210 0 -210 0 -2 213 -3 212 -213 3 -212 2 2 208 3 207 213 3 212 2 -2
213 -3 212 -212 3 -213 2 0 210 0 210 -210 0 -210 0 0 210 0 210 -422 2 -423
3 -3 213 -2 212 -845 0 -845 0 -2 -212 -3 -213 -210 -5 -210 -5 -3 -207 -2
-208 -420 0 -420 0 0 210 0 210 210 0 210 0 -2 213 -3 212 -207 3 -208 2 0
-215z m3388 -847 l2 -207 -198 -3 c-110 -2 -206 -2 -216 0 -14 3 -16 26 -16
206 0 111 3 206 7 210 4 3 99 5 212 4 l206 -3 3 -207z m422 -428 l0 -210 -210
0 -210 0 0 210 0 210 210 0 210 0 0 -210z m-1270 -420 l0 -210 -210 0 -210 0
0 210 0 210 210 0 210 0 0 -210z m1270 -635 l0 -425 -210 0 -210 0 0 210 0
210 -215 0 -215 0 0 -210 0 -210 -210 0 -210 0 0 -210 0 -210 -425 0 -425 0 0
420 0 420 215 0 215 0 0 -210 0 -210 210 0 210 0 0 210 0 210 210 0 210 0 0
208 c0 115 3 212 7 215 3 4 195 7 425 7 l418 0 0 -425z m-3390 -215 l0 -210
-210 0 -210 0 0 210 0 210 210 0 210 0 0 -210z m2120 -2121 l0 -209 210 0 210
0 0 -210 0 -210 213 -2 212 -3 3 -212 2 -213 210 0 210 0 0 -210 0 -210 -210
0 -210 0 -2 -422 -3 -423 -212 -3 -213 -2 0 -210 0 -210 213 -2 212 -3 3 -207
2 -208 -212 -2 -213 -3 -3 -212 -2 -213 -845 0 -845 0 -2 213 -3 212 -207 3
-208 2 0 420 0 420 208 2 207 3 3 213 2 212 423 -2 422 -3 3 -212 2 -213 420
0 420 0 0 215 0 215 -210 0 -210 0 0 845 0 845 -210 0 -210 0 0 210 0 210 193
2 c105 2 200 1 210 -1 15 -3 17 -21 17 -212z m-3390 1 l0 -210 -210 0 -210 0
0 210 0 210 210 0 210 0 0 -210z m2965 -1055 l0 -420 -212 -3 -213 -2 0 418
c0 230 3 422 7 426 4 3 99 5 212 4 l206 -3 0 -420z m-2965 -635 l0 -210 -210
0 -210 0 0 210 0 210 210 0 210 0 0 -210z m420 -1270 l0 -209 -206 -3 c-113
-2 -208 -1 -210 1 -2 2 -4 98 -4 213 l0 208 210 0 210 0 0 -210z m6360 -430
l0 -210 -210 0 -210 0 0 209 c0 129 4 211 10 213 5 2 100 2 210 0 l200 -3 0
-209z m850 0 l0 -210 210 0 210 0 0 210 0 210 210 0 210 0 0 -210 0 -210 215
0 215 0 0 -210 0 -210 -215 0 -215 0 0 -425 0 -425 -420 0 -420 0 0 635 0 635
-212 2 -213 3 -3 208 -2 207 215 0 215 0 0 -210z m-6780 -420 l0 -210 -215 0
-215 0 0 210 0 210 215 0 215 0 0 -210z m4230 0 l0 -210 -420 0 -420 0 0 210
0 210 420 0 420 0 0 -210z m-1268 -422 l3 -213 213 -3 212 -2 0 -210 0 -210
210 0 210 0 0 210 0 210 425 0 425 0 0 -845 0 -845 -212 2 -213 3 -3 207 -2
208 -208 2 -207 3 -3 213 -2 212 -210 0 -210 0 -2 -212 -3 -213 -212 -3 -213
-2 0 -210 0 -210 215 0 215 0 0 -210 0 -210 -425 0 -425 0 0 210 0 210 -210 0
-210 0 0 210 0 210 210 0 210 0 0 215 0 215 -210 0 -210 0 -2 208 -3 207 -212
3 -213 2 0 210 0 210 423 2 422 3 3 213 2 212 210 0 210 0 2 -212z m3388 -423
l0 -635 -635 0 -635 0 0 628 c0 346 3 632 7 635 3 4 289 7 635 7 l628 0 0
-635z m-1692 -2117 l-3 -213 -212 -3 -213 -2 0 208 c0 115 3 212 7 215 3 4
100 7 215 7 l208 0 -2 -212z"/>
<path d="M7710 5360 l0 -210 215 0 215 0 0 -215 0 -215 208 2 207 3 3 213 2
212 -210 0 -210 0 0 210 0 210 -215 0 -215 0 0 -210z"/>
<path d="M13220 4090 l0 -210 210 0 210 0 0 210 0 210 -210 0 -210 0 0 -210z"/>
<path d="M8560 2820 l0 -210 210 0 210 0 0 210 0 210 -210 0 -210 0 0 -210z"/>
<path d="M9830 2820 l0 -210 210 0 210 0 0 210 0 210 -210 0 -210 0 0 -210z"/>
<path d="M11530 3240 l0 -210 210 0 210 0 0 210 0 210 -210 0 -210 0 0 -210z"/>
<path d="M10255 12767 c-3 -7 -4 -102 -3 -212 l3 -200 213 -3 212 -2 0 -210 0
-210 210 0 210 0 0 210 0 210 -210 0 -210 0 -2 213 -3 212 -208 3 c-163 2
-209 0 -212 -11z"/>
<path d="M11530 11295 l0 -1485 1480 0 1480 0 0 1485 0 1485 -1480 0 -1480 0
0 -1485z m2538 -2 l-3 -1058 -1055 0 -1055 0 -3 1058 -2 1057 1060 0 1060 0
-2 -1057z"/>
<path d="M12377 11923 c-4 -3 -7 -289 -7 -635 l0 -628 635 0 635 0 0 635 0
635 -628 0 c-346 0 -632 -3 -635 -7z"/>
<path d="M11528 9178 l-3 -213 -422 -3 -423 -2 0 -210 0 -210 -425 0 -425 0 2
-212 3 -213 420 0 420 0 3 213 2 212 210 0 210 0 0 -635 0 -635 635 0 635 0 0
425 0 425 -392 0 c-216 0 -405 0 -420 0 l-28 0 0 210 0 210 210 0 210 0 0 210
0 210 425 0 425 0 0 -210 0 -210 210 0 210 0 0 -210 0 -210 -210 0 -210 0 0
-425 0 -425 210 0 210 0 0 -215 0 -215 -425 0 -425 0 0 -420 0 -420 425 0 425
0 0 420 0 420 210 0 210 0 0 215 0 215 -210 0 -210 0 0 210 0 210 210 0 210 0
0 210 0 210 213 2 212 3 3 213 2 212 210 0 210 0 0 210 0 210 -210 0 -210 0
-2 213 -3 212 -420 0 -420 0 -3 -212 -2 -213 -210 0 -210 0 -2 213 -3 212
-632 3 -633 2 -2 -212z m2542 -428 l0 -210 -425 0 -425 0 0 210 0 210 425 0
425 0 0 -210z"/>
<path d="M14070 7480 l0 -210 210 0 210 0 0 210 0 210 -210 0 -210 0 0 -210z"/>
<path d="M3900 7055 l0 -215 210 0 210 0 0 215 0 215 -210 0 -210 0 0 -215z"/>
<path d="M14070 6420 l0 -420 210 0 210 0 0 420 0 420 -210 0 -210 0 0 -420z"/>
<path d="M2200 4090 l0 -210 215 0 215 0 0 210 0 210 -215 0 -215 0 0 -210z"/>
<path d="M2200 1970 l0 -1480 1485 0 1485 0 0 1480 0 1480 -1485 0 -1485 0 0
-1480z m2545 0 l0 -1055 -1057 -3 -1058 -2 0 1060 0 1060 1058 -2 1057 -3 0
-1055z"/>
<path d="M3057 2603 c-4 -3 -7 -289 -7 -635 l0 -628 635 0 635 0 0 635 0 635
-628 0 c-346 0 -632 -3 -635 -7z"/>
<path d="M6018 2398 l-3 -213 -212 -3 -213 -2 0 -210 0 -210 425 0 425 0 0
425 0 425 -210 0 -210 0 -2 -212z"/>
<path d="M13642 1973 l3 -208 213 -3 212 -2 0 -210 0 -210 -212 -2 -213 -3 -3
-422 -2 -423 215 0 215 0 0 425 0 425 210 0 210 0 0 210 0 210 -210 0 -210 0
0 210 0 210 -215 0 -215 0 2 -207z"/>
<path d="M12800 700 l0 -210 210 0 210 0 0 210 0 210 -210 0 -210 0 0 -210z"/>
</g>
</svg>
