<?xml version="1.0" standalone="no"?>
<!DOCTYPE svg PUBLIC "-//W3C//DTD SVG 20010904//EN"
 "http://www.w3.org/TR/2001/REC-SVG-20010904/DTD/svg10.dtd">
<svg version="1.0" xmlns="http://www.w3.org/2000/svg"
 width="1280.000000pt" height="1278.000000pt" viewBox="0 0 1280.000000 1278.000000"
 preserveAspectRatio="xMidYMid meet">
<metadata>
Created by potrace 1.16, written by Peter Selinger 2001-2019
</metadata>
<g transform="translate(0.000000,1278.000000) scale(0.100000,-0.100000)"
fill="#000000" stroke="none">
<path d="M6855 12706 c-95 -14 -202 -55 -267 -102 -25 -19 -74 -66 -108 -104
-34 -39 -69 -70 -77 -70 -8 0 -54 40 -102 88 -88 90 -149 128 -266 167 -66 22
-233 30 -315 16 -168 -28 -252 -65 -382 -170 -135 -109 -228 -252 -292 -446
-24 -76 -26 -92 -26 -275 1 -170 3 -202 21 -250 11 -30 24 -73 30 -95 11 -44
83 -175 164 -300 152 -234 502 -571 884 -852 37 -27 179 -120 223 -146 57 -33
69 -34 116 -2 20 14 42 25 48 25 7 0 14 4 16 9 2 5 35 30 73 55 39 26 76 51
83 57 7 6 59 45 114 86 56 41 142 109 192 151 120 99 414 395 497 499 76 96
215 323 239 391 9 26 22 59 28 74 33 81 47 407 21 516 -45 191 -143 361 -278
482 -73 66 -190 140 -220 140 -10 0 -21 3 -25 7 -13 14 -89 33 -185 48 -106
17 -98 17 -206 1z m-193 -484 c86 -41 191 -146 204 -205 3 -16 12 -40 20 -55
19 -37 19 -256 0 -293 -7 -14 -16 -38 -20 -54 -4 -16 -16 -41 -27 -56 -25 -36
-24 -45 12 -86 17 -20 46 -68 65 -108 34 -71 34 -73 34 -213 0 -80 -4 -143
-10 -147 -5 -3 -14 -24 -20 -45 -15 -54 -104 -149 -178 -188 -105 -56 -165
-64 -459 -60 -144 2 -265 7 -270 11 -4 5 -10 80 -11 168 l-4 159 -79 0 c-94 0
-99 5 -99 109 0 94 15 111 100 111 56 0 61 2 70 26 6 15 10 194 10 438 0 227
3 434 6 459 6 40 10 47 33 50 14 3 150 4 301 3 260 -2 278 -4 322 -24z"/>
<path d="M6210 11815 l0 -215 138 0 c75 0 157 5 181 11 71 16 126 46 139 74
14 31 16 213 3 248 -6 14 -31 41 -57 61 l-47 36 -178 0 -179 0 0 -215z"/>
<path d="M6223 11393 c-9 -3 -13 -26 -13 -64 l0 -59 125 0 c158 0 165 -5 165
-114 0 -105 -1 -106 -161 -106 l-129 0 0 -65 0 -65 168 0 168 0 69 34 c39 18
81 45 94 59 22 24 23 33 22 139 -2 173 -24 202 -173 232 -73 15 -306 21 -335
9z"/>
<path d="M1447 11749 c-4 -13 -7 -133 -7 -266 l0 -243 26 -6 c38 -10 243 2
279 16 81 31 135 130 135 250 0 116 -48 208 -130 251 -15 8 -77 14 -161 17
l-136 4 -6 -23z m262 -83 c49 -26 66 -68 66 -166 0 -63 -5 -94 -18 -118 -23
-43 -91 -74 -149 -70 -63 4 -69 23 -66 199 4 176 7 184 84 176 28 -3 66 -13
83 -21z"/>
<path d="M2157 11756 c-59 -21 -106 -67 -137 -131 -30 -61 -28 -194 4 -260 42
-89 93 -129 183 -141 113 -14 215 35 266 130 18 34 22 57 22 141 0 84 -4 107
-22 141 -29 54 -93 110 -140 123 -52 15 -130 13 -176 -3z m173 -96 c53 -38 63
-74 61 -217 -1 -46 -5 -57 -36 -87 -63 -63 -144 -67 -207 -8 -40 37 -51 73
-46 154 5 95 27 140 81 168 50 25 102 22 147 -10z"/>
<path d="M2626 11754 c-3 -9 -6 -128 -6 -265 l0 -249 25 -6 c14 -3 36 -3 50 0
l25 6 0 160 c0 173 7 194 45 146 12 -16 57 -88 100 -162 43 -73 83 -138 91
-144 7 -6 32 -10 56 -8 l43 3 3 259 c2 165 -1 262 -7 265 -6 4 -28 5 -51 3
l-40 -4 0 -152 c0 -160 -8 -197 -36 -161 -8 11 -56 89 -106 173 l-90 152 -48
0 c-34 0 -50 -4 -54 -16z"/>
<path d="M3349 11754 c-26 -32 -183 -488 -175 -509 6 -18 39 -20 67 -4 11 6
29 30 39 55 l19 44 96 0 c82 0 98 -3 115 -20 11 -11 20 -29 20 -39 0 -40 90
-71 103 -36 6 14 -127 415 -160 483 -16 34 -22 37 -64 40 -34 2 -50 -2 -60
-14z m84 -184 c47 -133 45 -150 -25 -150 -75 0 -82 17 -49 112 25 73 41 102
50 92 4 -5 15 -29 24 -54z"/>
<path d="M3723 11763 c-20 -8 -15 -51 6 -63 11 -5 39 -10 63 -10 75 0 72 6 78
-237 l5 -218 29 -3 c15 -2 39 -1 52 2 l24 6 2 223 3 222 70 3 c74 3 83 8 81
50 l-1 27 -200 2 c-110 1 -206 -1 -212 -4z"/>
<path d="M4258 11759 c-16 -9 -18 -32 -18 -257 0 -136 4 -253 8 -260 7 -9 52
-12 193 -10 l184 3 9 27 c5 15 6 31 2 35 -4 5 -68 10 -142 13 -152 6 -154 7
-154 80 0 72 4 74 137 80 l118 5 3 38 3 37 -118 0 c-79 0 -123 4 -131 12 -14
14 -16 87 -2 108 7 12 37 16 140 18 l130 4 0 39 0 39 -172 0 c-99 0 -181 -5
-190 -11z"/>
<path d="M8283 11760 c-23 -9 -23 -9 -23 -265 l0 -255 155 0 c176 0 198 6 240
67 14 21 25 51 25 68 0 30 -27 83 -61 120 -18 20 -17 21 12 64 34 51 37 93 10
137 -32 52 -80 68 -216 71 -66 2 -130 -2 -142 -7z m224 -85 c21 -9 41 -21 45
-28 14 -21 9 -53 -12 -72 -25 -22 -143 -33 -165 -15 -20 17 -20 94 1 114 20
20 84 21 131 1z m41 -232 c38 -28 37 -78 -1 -106 -33 -26 -148 -37 -172 -17
-16 13 -22 130 -7 144 4 5 40 6 80 4 52 -4 81 -11 100 -25z"/>
<path d="M8816 11754 c-3 -9 -6 -128 -6 -265 l0 -249 25 -6 c14 -3 36 -3 50 0
l25 6 0 249 c0 137 -3 256 -6 265 -4 11 -19 16 -44 16 -25 0 -40 -5 -44 -16z"/>
<path d="M9033 11763 c-17 -6 -17 -50 -1 -60 7 -4 39 -10 72 -14 32 -4 63 -12
70 -19 7 -7 12 -80 14 -221 l4 -209 24 -6 c13 -3 35 -3 48 0 l25 6 3 214 c2
118 6 217 10 221 4 4 36 10 72 12 70 6 85 19 71 63 -6 19 -15 20 -203 19 -108
0 -203 -3 -209 -6z"/>
<path d="M9670 11754 c-89 -39 -140 -132 -140 -258 0 -94 22 -158 74 -211 45
-47 91 -65 172 -65 61 0 144 38 174 80 21 30 27 94 9 105 -19 12 -54 -5 -79
-39 -36 -50 -74 -69 -121 -63 -92 12 -134 81 -127 206 7 120 43 168 133 179
42 4 47 2 101 -47 69 -63 97 -66 102 -10 4 45 -30 88 -91 118 -52 25 -155 28
-207 5z"/>
<path d="M10245 11749 c-54 -29 -69 -43 -106 -100 -30 -48 -31 -50 -27 -162 3
-109 4 -114 36 -157 63 -85 156 -123 260 -105 218 37 273 378 82 510 -38 26
-53 30 -124 33 -68 3 -88 0 -121 -19z m175 -78 c56 -29 80 -82 80 -174 0 -129
-45 -187 -145 -187 -102 0 -145 57 -145 192 0 72 3 88 24 119 44 65 120 86
186 50z"/>
<path d="M10742 11503 l3 -268 24 -3 c12 -2 34 -1 47 2 l24 6 -2 263 -3 262
-48 3 -47 3 2 -268z"/>
<path d="M10976 11754 c-3 -9 -6 -128 -6 -265 l0 -249 24 -6 c64 -16 73 3 76
156 1 58 5 125 9 150 l7 45 46 -70 c25 -38 69 -112 98 -163 58 -102 83 -125
130 -120 l31 3 2 263 2 262 -47 0 -48 0 -1 -127 c0 -71 -4 -146 -8 -168 l-7
-40 -46 70 c-25 39 -65 105 -89 149 -60 107 -79 126 -127 126 -27 0 -42 -5
-46 -16z"/>
<path d="M2105 8684 c-13 -14 -15 -127 -15 -1009 0 -546 3 -1000 6 -1009 6
-14 105 -16 1025 -16 l1019 0 0 1019 c0 929 -1 1019 -16 1025 -9 3 -463 6
-1010 6 -881 -1 -995 -2 -1009 -16z m1755 -283 c7 -13 10 -261 10 -735 0 -636
-2 -716 -16 -730 -14 -14 -94 -16 -730 -16 -474 0 -722 3 -735 10 -19 10 -19
29 -19 738 0 553 3 731 12 740 9 9 187 12 740 12 709 0 728 0 738 -19z"/>
<path d="M2696 8094 c-14 -13 -16 -65 -16 -419 0 -222 3 -410 6 -419 5 -14 53
-16 435 -16 l429 0 0 429 c0 382 -2 430 -16 435 -9 3 -197 6 -419 6 -354 0
-406 -2 -419 -16z"/>
<path d="M5063 8693 c-19 -7 -19 -579 0 -586 26 -10 257 -8 277 3 19 10 20 20
20 290 0 266 -1 280 -19 290 -20 10 -254 13 -278 3z"/>
<path d="M5653 8693 c-10 -3 -13 -41 -13 -139 l0 -134 144 0 c110 0 146 -3
155 -14 8 -9 11 -59 9 -152 l-3 -139 -150 -6 c-82 -3 -151 -7 -152 -7 -2 -1
-3 -132 -3 -291 0 -254 2 -290 16 -295 30 -12 269 -7 282 6 8 8 12 57 12 154
0 120 2 143 16 148 9 3 72 6 140 6 l124 0 0 -155 c0 -182 -19 -164 175 -168
l130 -2 5 -130 5 -130 433 -3 432 -2 0 -449 c0 -400 2 -450 16 -455 9 -3 78
-6 155 -6 l140 0 -3 -132 -3 -133 -130 -2 c-193 -4 -175 12 -175 -156 0 -98
-4 -147 -12 -155 -9 -9 -85 -12 -279 -12 -147 0 -274 3 -283 6 -14 5 -16 28
-16 148 0 97 -4 146 -12 154 -9 9 -154 12 -590 12 l-578 0 0 295 0 294 153 3
152 3 3 284 c2 221 -1 286 -10 293 -15 9 -538 11 -562 2 -14 -5 -16 -29 -16
-160 l0 -154 -155 0 -155 0 0 295 0 295 143 0 c98 0 147 4 155 12 8 8 12 57
12 155 0 140 0 143 -22 148 -13 3 -214 4 -448 3 l-425 -3 -3 -149 c-2 -113 1
-151 10 -158 7 -4 68 -8 136 -8 l122 0 0 -135 0 -135 -119 0 c-66 0 -126 -3
-135 -6 -14 -5 -16 -41 -16 -295 l0 -289 135 0 135 0 0 -154 c0 -131 -2 -155
-16 -160 -9 -3 -202 -6 -430 -6 l-414 0 0 -135 0 -135 -154 0 c-131 0 -155 2
-160 16 -3 9 -6 69 -6 135 l0 119 -724 0 c-651 0 -724 -2 -730 -16 -8 -20 -8
-218 0 -238 5 -13 26 -16 124 -16 65 0 125 -3 134 -6 14 -6 16 -67 16 -594 0
-324 3 -595 6 -604 5 -14 28 -16 150 -16 131 0 144 2 154 19 5 11 10 81 10
155 l0 135 133 3 132 3 3 138 3 137 153 0 c131 0 155 -2 160 -16 3 -9 6 -136
6 -283 0 -194 -3 -270 -12 -279 -8 -8 -57 -12 -154 -12 -120 0 -143 -2 -148
-16 -12 -30 -7 -239 6 -252 8 -8 57 -12 154 -12 120 0 143 -2 148 -16 12 -30
7 -269 -6 -282 -9 -9 -122 -12 -449 -12 -389 0 -438 -2 -443 -16 -3 -9 -6 -69
-6 -134 0 -98 -3 -119 -16 -124 -9 -3 -69 -6 -134 -6 -96 0 -119 -3 -124 -15
-8 -21 -8 -1424 0 -1453 6 -22 9 -23 138 -20 l131 3 5 585 c3 322 6 586 8 588
1 1 70 2 152 2 l150 0 0 -37 c0 -21 0 -216 0 -434 0 -218 2 -404 6 -413 5 -14
36 -16 288 -16 206 0 285 -3 294 -12 8 -8 12 -54 12 -140 l0 -128 579 0 c470
0 581 -3 590 -13 7 -9 12 -107 13 -293 l3 -279 284 -3 c221 -2 286 1 293 10 4
7 8 201 8 430 l0 418 23 5 c12 3 81 6 152 8 l130 2 0 150 0 150 -445 0 -445 0
-2 -130 c-2 -71 -5 -140 -8 -152 l-5 -23 -445 0 -445 0 -5 23 c-3 12 -6 81 -8
152 l-2 130 -130 5 -130 5 -3 153 -3 152 295 0 295 0 3 -152 3 -153 130 0 130
0 3 153 3 152 -136 0 -135 0 0 140 0 140 295 0 294 0 3 -137 3 -138 279 -3
c197 -2 283 1 292 9 11 9 14 67 14 295 l0 285 153 -3 152 -3 5 -150 5 -150
137 -3 137 -3 3 -137 3 -137 150 -5 150 -5 0 -150 0 -150 -150 -5 -150 -5 0
-290 0 -290 150 0 150 0 3 130 c2 88 7 132 15 137 7 4 69 8 139 8 l127 0 3
-137 3 -138 293 -3 292 -2 0 -155 0 -155 -127 0 c-71 0 -133 -4 -140 -8 -8 -5
-13 -49 -15 -137 l-3 -130 -150 -5 -150 -5 -3 -152 -3 -153 290 0 c254 0 290
2 295 16 3 9 6 141 6 295 l0 279 295 0 294 0 3 -138 3 -137 150 -5 150 -5 5
-150 5 -150 130 -2 c194 -4 176 11 173 -146 l-3 -132 -307 -3 -308 -2 0 128
c0 86 -4 132 -12 140 -13 13 -222 18 -252 6 -14 -5 -16 -27 -16 -140 l0 -134
-745 0 -745 0 2 293 3 292 150 5 150 5 3 129 c2 97 -1 131 -10 138 -15 9 -538
11 -562 2 -14 -5 -16 -53 -16 -435 l0 -428 -152 -3 -153 -3 0 -290 0 -290 150
0 150 0 3 293 2 292 140 0 140 0 0 -155 0 -155 144 0 c110 0 146 -3 155 -14 8
-9 11 -55 9 -137 l-3 -124 -150 -5 -150 -5 -3 -304 c-2 -237 1 -306 10 -313
21 -13 272 -10 286 4 8 8 12 57 12 154 0 120 2 143 16 148 9 3 72 6 140 6
l124 0 0 -154 c0 -131 2 -155 16 -160 30 -12 269 -7 282 6 8 8 12 58 12 160
l0 148 140 0 140 0 0 -154 c0 -131 2 -155 16 -160 9 -3 136 -6 283 -6 194 0
270 3 279 12 8 8 12 58 12 160 l0 148 155 0 155 0 0 -154 c0 -131 2 -155 16
-160 20 -8 258 -8 278 0 24 9 24 299 0 308 -9 3 -78 6 -155 6 l-140 0 3 152 3
153 150 5 150 5 3 127 c2 87 7 129 15 137 8 6 69 12 138 13 l124 3 5 150 5
150 743 3 742 2 0 -155 0 -155 -437 0 c-241 0 -444 -4 -451 -8 -9 -7 -12 -41
-10 -138 l3 -129 290 -5 290 -5 5 -150 5 -150 153 -3 152 -3 0 296 0 295 128
0 c70 0 133 -4 139 -8 10 -6 13 -80 15 -292 l3 -285 153 -3 152 -3 0 284 c0
207 3 286 12 295 8 8 57 12 154 12 120 0 143 2 148 16 12 30 7 269 -6 282 -8
8 -57 12 -154 12 -120 0 -143 2 -148 16 -12 30 -7 239 6 252 8 8 57 12 154 12
120 0 143 2 148 16 12 30 7 269 -6 282 -8 8 -57 12 -154 12 -120 0 -143 2
-148 16 -3 9 -6 72 -6 140 l0 124 154 0 c131 0 155 2 160 16 12 30 7 269 -6
282 -8 8 -58 12 -160 12 l-147 0 -3 137 -3 138 -130 3 c-192 4 -176 17 -173
-141 l3 -132 153 -3 152 -3 0 -154 0 -155 -290 0 -290 0 -5 23 c-3 12 -6 81
-8 152 l-2 130 -150 5 -150 5 -3 138 -3 137 156 0 156 0 -3 152 -3 153 -150 0
-150 0 -3 -152 -3 -153 -428 0 c-382 0 -430 2 -435 16 -3 9 -6 148 -6 310 l0
294 -155 0 -155 0 -2 293 -3 292 -132 3 c-157 3 -142 21 -146 -173 l-2 -130
-305 0 -305 0 -2 130 c-4 193 11 175 -148 175 l-135 0 2 293 3 292 137 3 137
3 3 -153 3 -153 150 0 150 0 3 153 3 152 154 0 155 0 0 -139 c0 -77 3 -146 6
-155 5 -14 53 -16 435 -16 l429 0 2 -292 3 -293 153 -3 152 -3 0 -128 c0 -96
3 -131 14 -140 9 -8 172 -10 587 -9 l574 3 5 290 c3 160 7 291 8 293 1 1 67 2
147 2 132 0 145 2 155 19 11 21 14 219 4 245 -5 14 -43 16 -315 16 l-308 0 -3
153 -3 152 -292 3 -292 2 -3 138 -3 137 -424 3 c-333 2 -426 0 -433 -10 -4 -7
-8 -68 -8 -134 0 -102 -3 -123 -16 -128 -9 -3 -73 -6 -144 -6 -93 0 -130 4
-138 13 -7 8 -13 67 -14 138 l-3 124 -293 3 -293 2 3 153 3 152 130 2 c193 4
175 -11 175 148 l0 136 138 -3 137 -3 3 -130 c2 -88 7 -132 15 -137 14 -9 848
-11 871 -2 14 5 16 39 16 279 0 150 3 280 6 289 5 14 27 16 140 16 l134 0 0
-289 c0 -254 2 -290 16 -295 9 -3 78 -6 155 -6 l139 0 0 -142 c0 -79 4 -149 8
-156 7 -9 72 -12 293 -10 l284 3 2 130 c4 193 -12 175 156 175 98 0 147 4 155
12 14 14 17 235 4 256 -7 9 -76 12 -313 10 l-304 -3 -3 -130 c-2 -88 -7 -132
-15 -137 -7 -4 -69 -8 -139 -8 l-128 0 0 295 0 295 -155 0 -155 0 0 160 0 160
155 0 155 0 0 135 0 136 -152 -3 -153 -3 -3 -132 -3 -133 -133 0 c-113 0 -135
2 -140 16 -3 9 -6 69 -6 135 l0 120 -152 -3 -153 -3 -5 -445 -5 -445 -124 -3
c-82 -2 -128 1 -137 9 -11 9 -14 45 -14 155 l0 144 -143 0 c-98 0 -147 4 -155
12 -8 8 -12 56 -12 148 0 92 4 140 12 148 8 8 57 12 155 12 l143 0 0 135 0
135 -450 0 -450 0 0 455 0 455 143 0 c78 0 148 -4 154 -8 10 -6 13 -80 15
-292 l3 -285 135 0 135 0 3 1016 c2 984 1 1017 -17 1022 -38 10 -221 8 -241
-3 -20 -11 -20 -17 -20 -589 0 -519 -2 -579 -16 -585 -9 -3 -78 -6 -155 -6
l-139 0 0 -135 0 -135 -155 0 -155 0 0 295 0 294 153 3 152 3 3 131 3 131 -32
7 c-17 3 -87 6 -155 6 l-124 0 0 150 c0 177 -19 159 175 163 l130 2 3 131 3
132 -26 6 c-31 8 -514 7 -544 -1 -19 -5 -21 -13 -23 -137 l-3 -131 -152 -3
-153 -3 0 130 c0 119 -2 131 -19 141 -20 10 -1123 14 -1148 3z m882 -728 l0
-130 -152 -3 -153 -3 0 136 0 136 153 -3 152 -3 0 -130z m875 0 l0 -135 -124
0 c-68 0 -131 -3 -140 -6 -14 -5 -16 -28 -16 -148 0 -97 -4 -146 -12 -154 -13
-13 -252 -18 -282 -6 -14 5 -16 41 -16 295 l0 289 295 0 295 0 0 -135z m-2360
-1164 c0 -66 -3 -126 -6 -135 -5 -14 -29 -16 -160 -16 l-154 0 0 119 c0 66 3
126 6 135 5 14 29 16 160 16 l154 0 0 -119z m588 -18 l3 -133 -141 0 -140 0 0
135 0 136 138 -3 137 -3 3 -132z m-280 -590 l3 -133 139 0 140 0 0 -155 c0
-182 -19 -164 175 -168 l130 -2 0 -150 0 -150 -153 -3 -152 -3 2 -292 3 -292
150 0 150 0 5 150 5 150 137 3 137 3 3 137 3 137 150 0 150 0 3 -124 c2 -82
-1 -128 -9 -137 -9 -11 -45 -14 -155 -14 l-145 0 3 -152 3 -153 150 -5 150 -5
0 -290 0 -290 -150 -5 -150 -5 0 -135 0 -135 448 -3 448 -2 -3 -153 -3 -152
-150 -5 -150 -5 -3 -137 -3 -137 153 -3 153 -3 3 -152 3 -153 294 0 294 0 3
153 3 152 293 3 292 2 -2 -307 -3 -308 -137 -3 -138 -3 0 -294 0 -295 -310 0
-310 0 0 283 c0 207 -3 286 -12 295 -8 8 -54 12 -140 12 l-127 0 -3 -137 -3
-138 -152 -3 -153 -3 0 141 0 140 -295 0 -296 0 3 153 3 152 293 3 292 2 0
155 0 155 -127 0 c-71 0 -133 4 -140 8 -8 5 -13 49 -15 137 l-3 130 -448 3
-447 2 2 293 3 292 150 5 150 5 0 150 0 150 -290 0 -290 0 -5 -150 -5 -150
-150 -5 -150 -5 -3 -137 -3 -138 -154 0 c-182 0 -164 19 -168 -175 l-2 -130
-132 -3 -133 -3 0 140 c0 77 -3 146 -6 155 -5 14 -41 16 -295 16 l-289 0 0
-155 0 -155 -292 2 -293 3 -3 152 -3 152 133 3 133 3 5 290 c3 160 7 291 8
293 1 1 72 2 157 2 l154 0 3 138 3 137 133 3 132 3 0 154 0 155 -285 0 c-271
0 -285 1 -295 19 -11 21 -14 219 -4 245 5 14 55 16 455 16 l449 0 0 155 0 155
119 0 c66 0 126 3 135 6 14 5 16 28 16 144 0 114 3 141 16 155 13 13 39 15
157 13 l142 -3 5 -310 5 -310 150 0 150 0 3 313 2 312 -155 0 -155 0 0 135 0
136 153 -3 152 -3 3 -132z m-2094 -149 c13 -12 16 -40 16 -142 0 -70 -5 -134
-10 -142 -7 -12 -40 -16 -157 -20 l-148 -5 -3 -152 -3 -153 -129 0 c-75 0
-131 4 -135 10 -3 5 -6 144 -5 307 0 223 4 299 13 305 6 4 132 8 279 8 229 0
269 -2 282 -16z m860 10 c24 -9 24 -299 0 -308 -9 -3 -62 -6 -119 -6 -57 0
-110 3 -119 6 -14 5 -16 29 -16 160 l0 154 119 0 c66 0 126 -3 135 -6z m3906
-469 l0 -156 -152 3 -153 3 -3 140 c-1 76 0 145 2 152 4 10 42 13 156 13 l150
0 0 -155z m-626 -171 c12 -30 7 -239 -6 -252 -13 -13 -222 -18 -252 -6 -13 5
-16 27 -16 133 0 70 3 131 7 134 3 4 64 7 134 7 106 0 128 -3 133 -16z m316
-714 l0 -140 -155 0 -155 0 0 133 c0 74 3 137 7 140 3 4 73 7 155 7 l148 0 0
-140z m1768 -292 l-3 -153 -292 -3 -293 -2 0 148 c0 82 3 152 7 155 3 4 136 7
295 7 l289 0 -3 -152z m590 -450 l-3 -293 -432 -3 -433 -2 0 142 c0 79 4 149
8 155 6 10 80 13 292 15 l285 3 2 115 c4 176 -10 160 148 160 l135 0 -2 -292z
m-7120 -140 l-3 -153 -132 -3 -133 -3 0 156 0 155 135 0 136 0 -3 -152z m6250
-1791 l2 -447 -447 2 -448 3 -3 435 c-1 239 0 441 3 448 3 10 98 12 447 10
l443 -3 3 -448z m867 -432 l0 -290 -137 -3 -138 -3 0 284 c0 210 3 286 12 295
9 9 49 12 138 10 l125 -3 0 -290z m-2665 -437 c0 -79 -4 -149 -8 -156 -7 -9
-41 -12 -138 -10 l-129 3 -3 153 -3 152 141 0 140 0 0 -142z m-872 -605 l3
-153 -156 0 -155 0 0 148 c0 82 3 152 7 156 4 3 72 5 152 4 l146 -3 3 -152z
m860 145 c8 -8 12 -57 12 -155 l0 -143 -295 0 -295 0 0 148 c0 82 3 152 7 155
3 4 131 7 283 7 201 0 279 -3 288 -12z"/>
<path d="M4460 5147 c0 -207 -3 -286 -12 -295 -8 -8 -58 -12 -160 -12 l-148 0
0 -140 0 -140 -135 0 -136 0 3 -152 3 -153 130 0 130 0 3 152 3 153 292 2 292
3 2 115 c2 63 5 125 8 137 l5 23 308 2 307 3 0 150 0 150 -300 3 c-268 2 -301
4 -312 19 -9 11 -13 57 -13 140 l0 123 -135 0 -135 0 0 -283z"/>
<path d="M6820 2915 l0 -155 155 0 155 0 0 155 0 155 -155 0 -155 0 0 -155z"/>
<path d="M7722 2918 l3 -153 153 -3 153 -3 -3 153 -3 153 -153 3 -153 3 3
-153z"/>
<path d="M8632 2158 c-14 -14 -17 -235 -4 -256 7 -9 41 -12 138 -10 l129 3 3
129 c2 97 -1 131 -10 138 -21 13 -242 10 -256 -4z"/>
<path d="M8637 8687 c-16 -11 -17 -87 -15 -1022 l3 -1010 1034 -3 c821 -2
1036 0 1043 10 4 7 8 462 8 1010 0 895 -2 998 -16 1012 -14 15 -118 16 -1028
16 -786 0 -1016 -3 -1029 -13z m1737 -273 c14 -6 16 -80 16 -744 0 -664 -2
-738 -16 -744 -9 -3 -338 -6 -733 -6 -544 0 -720 3 -729 12 -17 17 -17 1459 0
1476 9 9 185 12 729 12 395 0 724 -3 733 -6z"/>
<path d="M9227 8098 c-16 -12 -17 -47 -15 -433 l3 -420 430 0 430 0 3 424 c2
333 0 426 -10 433 -7 4 -196 8 -419 8 -309 0 -409 -3 -422 -12z"/>
<path d="M4467 8414 c-4 -4 -7 -74 -7 -155 0 -125 2 -148 16 -153 23 -9 227
-7 242 2 9 7 12 45 10 158 l-3 149 -126 3 c-69 1 -128 -1 -132 -4z"/>
<path d="M6230 6631 c0 -254 2 -290 16 -295 9 -3 73 -6 144 -6 96 0 130 3 139
14 8 9 11 95 9 292 l-3 279 -152 3 -153 3 0 -290z"/>
<path d="M6820 6631 c0 -254 2 -290 16 -295 9 -3 73 -6 144 -6 96 0 130 3 139
14 8 9 11 95 9 292 l-3 279 -152 3 -153 3 0 -290z"/>
<path d="M10087 6323 c-4 -3 -7 -133 -7 -289 0 -248 2 -283 16 -288 9 -3 71
-6 139 -6 68 0 130 3 139 6 14 5 16 41 16 295 l0 289 -148 0 c-82 0 -152 -3
-155 -7z"/>
<path d="M2100 2151 c-7 -13 -10 -351 -10 -1030 0 -904 2 -1011 16 -1025 14
-14 119 -16 1012 -16 548 0 1003 4 1010 8 10 7 12 222 10 1043 l-3 1034 -1012
3 c-993 2 -1012 2 -1023 -17z m1758 -273 c9 -9 12 -185 12 -729 0 -395 -3
-724 -6 -733 -6 -14 -80 -16 -744 -16 -664 0 -738 2 -744 16 -3 9 -6 338 -6
733 0 544 3 720 12 729 17 17 1459 17 1476 0z"/>
<path d="M2690 1560 c-12 -23 -14 -818 -1 -838 6 -9 100 -12 432 -10 l424 3 0
430 0 430 -422 3 c-412 2 -422 2 -433 -18z"/>
<path d="M4467 1574 c-4 -4 -7 -339 -7 -745 0 -663 2 -737 16 -743 23 -9 227
-7 242 2 10 7 12 163 10 748 l-3 739 -126 3 c-69 1 -128 -1 -132 -4z"/>
<path d="M8317 704 c-4 -4 -7 -141 -7 -304 0 -217 3 -299 12 -308 14 -14 265
-17 286 -4 9 7 12 76 10 313 l-3 304 -146 3 c-80 1 -148 -1 -152 -4z"/>
<path d="M5057 393 c-4 -3 -7 -73 -7 -154 0 -125 2 -148 16 -153 30 -12 269
-7 282 6 8 8 12 57 12 154 0 120 -2 143 -16 148 -21 8 -279 8 -287 -1z"/>
<path d="M8913 393 c-18 -7 -18 -284 -1 -301 13 -13 252 -18 282 -6 14 5 16
28 16 154 0 126 -2 149 -16 154 -19 7 -263 7 -281 -1z"/>
</g>
</svg>
