<?xml version="1.0" standalone="no"?>
<!DOCTYPE svg PUBLIC "-//W3C//DTD SVG 20010904//EN"
 "http://www.w3.org/TR/2001/REC-SVG-20010904/DTD/svg10.dtd">
<svg version="1.0" xmlns="http://www.w3.org/2000/svg"
 width="1280.000000pt" height="1278.000000pt" viewBox="0 0 1280.000000 1278.000000"
 preserveAspectRatio="xMidYMid meet">
<metadata>
Created by potrace 1.16, written by Peter Selinger 2001-2019
</metadata>
<g transform="translate(0.000000,1278.000000) scale(0.100000,-0.100000)"
fill="#000000" stroke="none">
<path d="M6860 12705 c-167 -25 -269 -80 -380 -205 -34 -39 -69 -70 -77 -70
-8 0 -54 40 -101 88 -92 93 -160 134 -277 169 -89 27 -293 24 -400 -5 -226
-61 -418 -231 -531 -467 -66 -139 -74 -181 -74 -400 0 -161 3 -202 20 -265 35
-126 147 -328 279 -500 127 -167 465 -485 707 -665 36 -27 74 -57 83 -65 10
-8 33 -23 52 -34 19 -10 50 -31 70 -47 35 -27 84 -57 141 -86 16 -8 36 -12 46
-9 18 6 232 143 260 167 7 6 59 45 115 87 234 174 536 459 687 649 76 95 216
323 240 391 9 26 22 59 28 74 50 121 46 495 -7 623 -66 159 -145 280 -244 370
-73 67 -195 145 -226 145 -9 0 -21 4 -26 8 -16 14 -90 32 -192 48 -53 8 -99
13 -102 13 -3 -1 -44 -8 -91 -14z m-380 -493 l0 -38 63 -13 c162 -33 277 -146
311 -308 8 -35 6 -36 -111 -48 -62 -7 -62 -7 -69 22 -21 89 -80 149 -172 177
l-22 7 2 -241 3 -242 90 -27 c114 -34 146 -52 211 -113 70 -66 105 -144 112
-253 14 -226 -131 -410 -352 -448 l-66 -11 0 -93 0 -93 -50 0 -50 0 0 89 0 88
-62 13 c-154 30 -260 105 -317 223 -29 60 -59 182 -48 193 3 3 43 10 88 16 86
10 98 6 99 -34 0 -38 43 -128 77 -163 34 -35 122 -85 151 -85 9 0 12 60 12
268 l0 269 -42 12 c-71 21 -200 87 -245 126 -25 21 -55 62 -75 103 -31 63 -33
73 -32 172 0 91 3 112 26 160 56 120 157 195 301 221 l67 12 0 39 0 38 50 0
50 0 0 -38z"/>
<path d="M6329 12006 c-98 -35 -155 -101 -165 -192 -15 -121 59 -218 189 -249
l27 -7 0 231 c0 127 -3 231 -7 231 -5 -1 -24 -7 -44 -14z"/>
<path d="M6480 11085 l0 -255 28 6 c184 42 273 256 165 401 -21 29 -109 79
-170 98 l-23 6 0 -256z"/>
<path d="M2045 11766 c-143 -35 -225 -130 -225 -261 0 -142 94 -239 259 -267
164 -28 322 37 377 157 47 99 21 233 -56 298 -91 77 -227 105 -355 73z m189
-78 c140 -42 179 -244 64 -332 -89 -66 -231 -60 -309 14 -80 76 -74 217 13
284 59 44 152 58 232 34z"/>
<path d="M1180 11505 l0 -265 155 0 c171 0 240 10 301 45 148 86 155 336 12
432 -65 43 -123 53 -308 53 l-160 0 0 -265z m387 152 c23 -16 47 -43 55 -60
20 -47 15 -147 -9 -193 -33 -64 -69 -78 -205 -83 l-118 -3 0 187 0 187 118 -4
c111 -3 121 -5 159 -31z"/>
<path d="M2560 11505 l0 -265 55 0 55 0 2 181 3 182 155 -181 155 -181 58 -1
57 0 0 265 0 265 -55 0 -55 0 -2 -181 -3 -182 -155 181 -155 181 -57 1 -58 0
0 -265z"/>
<path d="M3379 11728 c-12 -24 -73 -141 -135 -260 -63 -119 -114 -219 -114
-222 0 -3 27 -6 60 -6 l61 0 36 80 36 80 132 0 132 0 36 -80 36 -80 61 0 c46
0 61 3 57 13 -2 7 -63 125 -135 262 l-131 250 -55 3 -55 3 -22 -43z m161 -240
c0 -5 -38 -8 -85 -8 -47 0 -85 3 -85 6 0 3 19 46 42 96 l42 91 43 -89 c23 -49
43 -92 43 -96z"/>
<path d="M3720 11730 l0 -40 110 0 110 0 0 -225 0 -225 55 0 55 0 0 225 0 225
110 0 110 0 0 40 0 40 -275 0 -275 0 0 -40z"/>
<path d="M4330 11505 l0 -265 255 0 255 0 0 40 0 40 -200 0 -200 0 0 75 0 75
180 0 180 0 0 40 0 40 -180 0 -180 0 0 70 0 70 190 0 190 0 0 40 0 40 -245 0
-245 0 0 -265z"/>
<path d="M7990 11506 l0 -266 55 0 55 0 0 105 0 105 104 0 c121 0 201 13 236
39 64 47 88 128 55 191 -8 16 -36 42 -63 57 -46 28 -49 28 -244 32 l-198 3 0
-266z m360 171 c38 -19 57 -59 42 -92 -19 -41 -67 -55 -187 -55 l-105 0 0 80
0 80 113 0 c69 0 121 -5 137 -13z"/>
<path d="M8699 11728 c-12 -24 -73 -141 -135 -260 -63 -119 -114 -219 -114
-222 0 -3 27 -6 60 -6 l61 0 36 80 36 80 132 0 132 0 36 -80 36 -80 61 0 c46
0 61 3 57 13 -2 7 -63 125 -135 262 l-131 250 -55 3 -55 3 -22 -43z m161 -240
c0 -5 -38 -8 -85 -8 -47 0 -85 3 -85 6 0 3 19 46 42 96 l42 91 43 -89 c23 -49
43 -92 43 -96z"/>
<path d="M9020 11762 c0 -5 56 -75 125 -155 l125 -147 0 -110 0 -110 55 0 55
0 0 110 0 110 125 147 c69 80 125 150 125 155 0 4 -28 8 -62 8 l-63 0 -83
-105 c-46 -58 -87 -105 -91 -105 -4 0 -48 47 -97 105 l-89 105 -62 0 c-35 0
-63 -4 -63 -8z"/>
<path d="M9700 11506 l0 -266 55 0 55 0 0 105 0 105 104 0 c121 0 201 13 236
39 64 47 88 128 55 191 -8 16 -36 42 -63 57 -46 28 -49 28 -244 32 l-198 3 0
-266z m360 171 c38 -19 57 -59 42 -92 -19 -41 -67 -55 -187 -55 l-105 0 0 80
0 80 113 0 c69 0 121 -5 137 -13z"/>
<path d="M10399 11728 c-12 -24 -73 -141 -135 -260 -63 -119 -114 -219 -114
-222 0 -3 27 -6 60 -6 l61 0 36 80 36 80 132 0 132 0 36 -80 36 -80 61 0 c46
0 61 3 57 13 -2 7 -63 125 -135 262 l-131 250 -55 3 -55 3 -22 -43z m161 -240
c0 -5 -38 -8 -85 -8 -47 0 -85 3 -85 6 0 3 19 46 42 96 l42 91 43 -89 c23 -49
43 -92 43 -96z"/>
<path d="M10850 11505 l0 -265 215 0 215 0 0 40 0 40 -160 0 -160 0 0 225 0
225 -55 0 -55 0 0 -265z"/>
<path d="M2060 8055 l0 -925 918 2 917 3 0 920 0 920 -917 3 -918 2 0 -925z
m1580 0 l0 -655 -660 0 -660 0 0 655 0 655 660 0 660 0 0 -655z"/>
<path d="M2585 8437 c-3 -6 -4 -183 -3 -392 l3 -380 393 -3 392 -2 0 395 0
395 -390 0 c-304 0 -392 -3 -395 -13z"/>
<path d="M4428 8848 l-3 -133 -133 -3 -133 -3 3 -127 3 -127 130 -5 130 -5 3
-127 3 -127 -133 -3 -133 -3 0 -130 0 -130 262 -3 263 -2 2 -393 3 -392 128
-3 127 -3 0 396 0 395 135 0 135 0 0 -130 0 -130 130 0 130 0 0 -130 0 -130
-130 0 -130 0 0 -395 0 -395 130 0 130 0 0 130 0 130 130 0 130 0 0 -130 0
-129 133 -3 132 -3 3 -262 2 -263 -135 0 -135 0 0 -130 0 -130 135 0 136 0 -3
-132 -3 -133 -392 -3 -393 -2 0 265 0 265 130 0 130 0 0 130 0 130 -265 0
-265 0 0 -130 0 -130 -130 0 -130 0 2 263 3 262 128 3 127 3 0 129 0 130 -655
0 -655 0 0 -130 0 -130 -135 0 -135 0 0 130 0 130 -655 0 -655 0 0 -130 0
-130 260 0 259 0 3 -132 3 -133 130 0 130 0 3 133 3 132 259 0 260 0 0 -135 0
-135 -130 0 -130 0 0 -130 0 -130 -130 0 -130 0 0 -130 0 -130 -395 0 -395 0
0 -265 0 -265 130 0 130 0 0 -130 0 -130 130 0 130 0 0 -265 0 -265 -130 0
-130 0 2 -262 3 -263 260 0 260 0 0 130 0 130 -132 3 -133 3 0 129 0 130 265
0 265 0 0 -130 0 -130 130 0 130 0 0 130 0 130 265 0 265 0 0 -130 0 -130
-130 0 -130 0 0 -135 0 -135 -265 0 -265 0 2 -392 3 -393 128 -3 127 -3 0
-129 0 -130 -260 0 -260 0 -2 393 -3 392 -132 3 -133 3 0 -525 0 -525 133 -3
132 -3 5 -130 5 -130 125 0 125 0 3 133 3 132 129 0 129 0 3 -132 3 -133 393
-3 392 -2 0 -260 0 -259 133 -3 132 -3 3 -132 3 -133 -136 0 -135 0 0 -655 0
-655 135 0 135 0 0 130 0 130 130 0 130 0 0 265 0 265 130 0 130 0 0 130 0
130 135 0 135 0 0 -130 0 -130 130 0 131 0 -3 -132 -3 -133 -127 -3 -128 -3 0
-259 0 -260 130 0 130 0 0 130 0 130 130 0 130 0 0 -130 0 -131 133 3 132 3 3
128 3 127 129 0 130 0 0 -130 0 -130 130 0 130 0 0 130 0 130 -130 0 -130 0 0
265 0 265 658 2 657 3 3 258 2 257 130 0 130 0 0 -130 0 -130 130 0 130 0 0
-130 0 -130 -130 0 -129 0 -3 -132 -3 -133 -522 -3 -523 -2 0 -130 0 -130 130
0 130 0 0 -130 0 -130 130 0 130 0 0 130 0 130 265 0 265 0 0 -130 0 -130 655
0 655 0 0 130 0 130 -522 2 -523 3 -3 127 -3 127 128 3 128 3 3 263 2 262 135
0 135 0 0 -130 0 -130 130 0 129 0 3 -132 3 -133 263 -3 262 -2 0 -130 0 -130
130 0 130 0 0 -130 0 -131 133 3 132 3 3 128 3 127 129 0 130 0 0 -130 0 -130
130 0 130 0 0 130 0 130 -130 0 -130 0 0 130 0 130 -130 0 -130 0 0 135 0 135
393 2 392 3 0 390 0 390 -132 3 -133 3 0 129 0 129 133 3 132 3 0 260 0 260
-130 0 -130 0 -3 -262 -2 -263 -130 0 -130 0 0 130 0 130 -130 0 -130 0 0 135
0 135 130 0 130 0 0 130 0 130 130 0 130 0 0 130 0 130 130 0 c153 0 142 -12
138 155 l-3 110 -132 3 -133 3 0 129 0 130 -130 0 -130 0 0 130 0 129 128 3
127 3 5 130 5 130 130 5 130 5 0 125 0 125 -130 5 -130 5 -3 128 -3 127 -129
0 -130 0 0 135 0 135 130 0 130 0 0 130 0 129 133 3 132 3 3 128 3 127 -266 0
-265 0 0 -260 0 -260 -130 0 -130 0 0 -135 0 -135 130 0 130 0 0 -395 0 -395
-130 0 -130 0 -2 263 -3 262 -132 3 -133 3 0 129 0 129 -127 3 -128 3 -5 130
-5 130 -130 0 -130 0 -3 -262 -2 -263 -130 0 -130 0 -2 263 -3 262 -127 3
-128 3 0 129 0 129 -132 3 -133 3 -3 128 -3 127 266 0 265 0 0 -130 0 -130
130 0 130 0 0 130 0 130 -130 0 -129 0 -3 133 -3 132 -260 5 -260 5 -3 127 -3
127 -127 3 -127 3 -3 128 -3 127 130 0 130 0 3 133 3 132 130 0 130 0 3 -132
3 -133 259 0 260 0 0 135 0 135 135 0 135 0 0 130 0 131 -132 -3 -133 -3 -3
-127 -3 -128 -129 0 -130 0 0 130 0 130 -262 2 -263 3 -3 127 -3 127 133 3
133 3 3 263 2 262 -135 0 -135 0 0 130 0 129 133 3 132 3 3 263 2 263 -132 -3
-133 -3 -3 -262 -2 -263 -130 0 -130 0 0 135 0 135 -130 0 -130 0 0 130 0 130
130 0 130 0 0 130 0 130 130 0 130 0 0 135 0 135 -785 0 -785 0 0 -135 0 -135
260 0 260 0 0 -130 0 -130 -130 0 -130 0 0 -130 0 -130 -265 0 -265 0 0 130 0
130 -130 0 -130 0 0 -130 0 -130 130 0 130 0 0 -265 0 -265 -130 0 -130 0 0
130 0 130 -525 0 -525 0 0 265 0 265 130 0 130 0 0 130 0 130 -265 0 -265 0 0
-130 0 -130 -130 0 -130 0 -2 263 -3 262 -127 3 -127 3 -3 -133z m522 -793 l0
-135 -130 0 -130 0 0 128 c0 71 3 132 7 135 3 4 62 7 130 7 l123 0 0 -135z
m2900 0 l0 -135 130 0 130 0 0 -130 0 -130 130 0 130 0 0 -265 0 -266 -127 3
-128 3 -3 263 -2 262 -130 0 -130 0 0 130 0 130 -392 2 -393 3 -3 133 -3 132
396 0 395 0 0 -135z m-528 -657 l3 -263 133 -3 132 -3 0 136 0 136 128 -3 127
-3 0 -130 0 -130 -127 -3 -128 -3 0 -129 0 -130 260 0 260 0 0 -265 0 -265
-130 0 -130 0 0 -130 0 -130 -525 0 -525 0 0 -130 0 -129 -132 -3 -133 -3 -3
-132 -3 -133 266 0 265 0 0 -130 0 -130 130 0 130 0 0 -130 0 -130 135 0 135
0 0 130 0 130 130 0 130 0 0 130 0 130 -262 2 -263 3 0 130 0 130 260 0 260 0
3 -132 3 -133 129 0 129 0 3 -127 3 -128 127 -3 127 -3 3 -127 3 -127 133 -3
133 -3 -3 -132 -3 -132 -132 -3 -133 -3 0 -129 0 -130 265 0 265 0 0 -130 0
-130 -130 0 -131 0 3 -132 3 -133 257 -3 257 -2 3 -128 3 -127 133 -3 132 -3
-2 263 -3 263 -130 5 -130 5 -3 128 -3 127 266 0 265 0 2 -262 3 -263 133 -3
132 -3 0 -129 0 -130 130 0 130 0 0 -395 0 -395 -130 0 -130 0 -2 263 -3 262
-132 3 -132 3 -3 -133 -3 -133 -254 -3 c-197 -2 -256 1 -263 10 -4 7 -8 68 -8
136 l0 123 -127 -3 -128 -3 -5 -130 -5 -130 -127 -3 -128 -3 0 -129 0 -130
130 0 130 0 0 -130 0 -130 -525 0 -524 0 -3 -132 -3 -133 -127 -3 -127 -3 -3
-127 -3 -127 -132 -3 -133 -3 0 -129 0 -129 133 -3 132 -3 0 -130 0 -130 -132
-3 -133 -3 0 -129 0 -130 -525 0 -525 0 0 130 0 130 -130 0 -129 0 -3 -128 -3
-127 -392 -3 -393 -2 0 265 0 265 130 0 130 0 0 130 0 130 -262 2 -263 3 -3
127 -3 127 -127 3 -127 3 -3 263 -2 262 130 0 130 0 0 130 0 129 -127 3 -128
3 -3 133 -3 132 -129 0 -129 0 -3 -132 -3 -133 -392 -3 -393 -2 0 135 0 135
-135 0 -135 0 0 130 0 130 135 0 135 0 0 130 0 130 258 2 257 3 3 263 2 262
-130 0 -130 0 0 130 0 129 -127 3 -128 3 -3 133 -3 132 -134 0 -135 0 0 -265
0 -265 -130 0 -130 0 0 130 0 129 -127 3 -128 3 -3 263 -2 262 -265 0 -265 0
0 130 0 130 265 0 265 0 0 135 0 135 130 0 130 0 0 130 0 130 130 0 130 0 0
130 0 130 135 0 135 0 0 135 0 136 128 -3 127 -3 0 -130 0 -130 -127 -3 -128
-3 0 -129 0 -130 393 -2 392 -3 3 -127 3 -128 -396 0 -395 0 0 130 0 130 -135
0 -135 0 2 -262 3 -263 263 -3 262 -2 0 -130 0 -130 -130 0 -130 0 0 -130 0
-130 260 0 260 0 0 260 0 260 135 0 135 0 0 -130 0 -130 260 0 260 0 0 130 0
129 -127 3 -128 3 0 130 0 130 128 3 127 3 0 -136 0 -135 135 0 135 0 0 -130
0 -130 130 0 130 0 0 -130 0 -130 -130 0 -130 0 0 -265 0 -265 130 0 130 0 0
130 0 130 130 0 129 0 3 133 3 132 130 0 130 0 0 -130 0 -130 -133 -3 -133 -3
3 -127 3 -127 130 -5 130 -5 0 -260 0 -260 -132 -3 -133 -3 0 -129 0 -130 135
0 135 0 0 130 0 130 130 0 130 0 0 -130 0 -130 -130 0 -130 0 0 -130 0 -130
260 0 260 0 0 655 0 654 -127 3 -128 3 -3 263 -2 262 130 0 130 0 0 130 0 129
-127 3 -128 3 -5 130 -5 130 -127 3 -128 3 0 129 0 130 260 0 260 0 0 130 0
130 528 2 527 3 0 130 0 130 -527 3 -528 2 0 130 0 130 -130 0 -130 0 0 130 0
130 -130 0 -129 0 -3 -127 -3 -128 -132 -3 -133 -3 0 130 0 130 -127 3 -128 3
-3 133 -3 133 128 -3 128 -3 3 -132 3 -133 134 0 135 0 0 93 c1 88 1 91 15 59
17 -38 50 -54 83 -39 37 17 39 63 5 145 -4 10 12 12 74 10 l78 -3 3 -132 3
-133 129 0 129 0 3 133 3 132 133 3 132 3 0 129 0 130 260 0 260 0 2 -262z
m-2897 -923 l0 -130 -130 0 -130 0 -3 119 c-1 66 0 126 2 133 4 11 34 13 133
11 l128 -3 0 -130z m-525 -3685 l0 -130 -265 0 -265 0 0 130 0 130 265 0 265
0 0 -130z m5530 0 l0 -131 -132 3 -133 3 -3 114 c-1 63 0 121 2 128 4 10 37
13 136 13 l130 0 0 -130z m-1060 -530 l0 -131 -127 3 -128 3 -3 128 -3 127
131 0 130 0 0 -130z m1058 -262 l-3 -393 -390 0 -390 0 -3 393 -2 392 395 0
395 0 -2 -392z m792 2 l0 -130 130 0 130 0 0 -265 0 -265 -260 0 -260 0 0 130
0 129 128 3 127 3 3 133 3 132 -131 0 -130 0 0 130 0 130 130 0 130 0 0 -130z
m-5270 -395 l0 -265 -260 0 -260 0 0 130 0 129 128 3 127 3 3 133 3 132 129 0
130 0 0 -265z m3160 130 l0 -135 130 0 130 0 0 -130 0 -130 -130 0 -130 0 0
130 0 130 -130 0 -130 0 0 135 0 135 130 0 130 0 0 -135z m1050 -525 l0 -130
-130 0 -130 0 0 130 0 130 130 0 130 0 0 -130z m528 -262 l-3 -133 -127 -3
-128 -3 0 136 0 135 130 0 131 0 -3 -132z m-3678 -268 l0 -130 -135 0 -135 0
0 130 0 130 135 0 135 0 0 -130z"/>
<path d="M6800 7265 l0 -136 128 3 127 3 0 130 0 130 -127 3 -128 3 0 -136z"/>
<path d="M2850 5420 l0 -130 130 0 130 0 0 -130 0 -130 130 0 130 0 0 130 0
130 -130 0 -130 0 0 130 0 130 -130 0 -130 0 0 -130z"/>
<path d="M4432 4898 l3 -133 128 -3 127 -3 0 -129 0 -130 -130 0 -130 0 0
-395 0 -395 130 0 130 0 0 -130 0 -130 265 0 265 0 0 -135 0 -135 130 0 130 0
0 -130 0 -130 -130 0 -130 0 2 -262 3 -263 125 0 125 0 3 133 3 132 129 0 129
0 3 -132 3 -133 133 -3 132 -3 0 -259 0 -259 -132 -3 -133 -3 0 -130 0 -130
133 -3 132 -3 0 136 0 135 130 0 130 0 0 -135 0 -136 128 3 127 3 3 133 3 132
-131 0 -130 0 0 130 0 130 130 0 130 0 0 265 0 265 -395 0 -395 0 0 130 0 130
265 0 265 0 0 130 0 130 -130 0 -130 0 0 135 0 135 -395 0 -395 0 0 260 0 259
128 3 127 3 0 130 0 130 -262 3 -263 2 0 395 0 395 -260 0 -261 0 3 -132z
m518 -923 l0 -265 -130 0 -130 0 0 265 0 265 130 0 130 0 0 -265z"/>
<path d="M6800 4895 l0 -136 128 3 127 3 0 130 0 130 -127 3 -128 3 0 -136z"/>
<path d="M7590 4895 l0 -135 130 0 131 0 -3 -127 -3 -128 -392 -3 -393 -2 0
-130 0 -130 -130 0 -130 0 0 -265 0 -265 130 0 130 0 0 -265 0 -265 -130 0
-130 0 0 -130 0 -130 130 0 130 0 0 -395 0 -395 -130 0 -130 0 0 -130 0 -130
130 0 129 0 3 -132 3 -133 128 -3 127 -3 0 136 0 135 -130 0 -130 0 0 130 0
130 130 0 130 0 2 262 3 263 263 3 262 2 0 130 0 130 130 0 130 0 0 130 0 130
265 0 265 0 0 265 0 264 -132 3 -133 3 -3 127 -3 127 -127 3 -127 3 0 130 0
130 128 3 127 3 0 129 0 129 -127 3 -128 3 -3 128 -3 127 -129 0 -129 0 -3
133 -3 132 -127 3 -128 3 0 -136z m-270 -920 l0 -265 265 0 265 0 0 -130 0
-130 -265 0 -265 0 0 130 0 130 -130 0 -130 0 0 265 0 265 130 0 130 0 0 -265z
m0 -925 l0 -130 -130 0 -130 0 0 130 0 130 130 0 130 0 0 -130z"/>
<path d="M3640 3580 l0 -130 260 0 260 0 0 130 0 130 -260 0 -260 0 0 -130z"/>
<path d="M9430 3580 l0 -130 130 0 130 0 0 130 0 130 -130 0 -130 0 0 -130z"/>
<path d="M8900 2000 l0 -130 130 0 130 0 0 130 0 130 -130 0 -130 0 0 -130z"/>
<path d="M6010 8845 l0 -135 260 0 260 0 0 135 0 135 -260 0 -260 0 0 -135z"/>
<path d="M8905 8968 c-3 -7 -4 -422 -3 -923 l3 -910 920 0 920 0 0 920 0 920
-918 3 c-729 2 -919 0 -922 -10z m1575 -913 l0 -655 -657 2 -658 3 -3 640 c-1
352 0 646 3 653 3 9 145 12 660 12 l655 0 0 -655z"/>
<path d="M9430 8055 l0 -395 395 0 395 0 0 395 0 395 -395 0 -395 0 0 -395z"/>
<path d="M5747 8444 c-4 -4 -7 -63 -7 -131 l0 -124 133 3 132 3 0 125 0 125
-126 3 c-69 1 -128 -1 -132 -4z"/>
<path d="M4165 7648 c-3 -8 -4 -126 -3 -263 l3 -250 130 0 130 0 0 260 0 260
-128 3 c-97 2 -129 0 -132 -10z"/>
<path d="M9690 6741 l0 -130 133 -3 132 -3 0 -130 0 -130 -132 -3 -133 -3 0
-129 0 -130 -262 -2 -263 -3 0 -125 0 -125 130 -5 130 -5 5 -130 5 -130 254
-3 c197 -2 256 1 263 10 4 7 8 68 8 136 l0 122 130 0 130 0 0 130 0 130 130 0
130 0 0 130 0 129 133 3 132 3 0 130 0 130 -132 3 -133 3 0 129 0 130 -130 0
-130 0 0 -130 0 -130 -130 0 -129 0 -3 128 -3 127 -132 3 -133 3 0 -130z m530
-531 l0 -130 -130 0 -130 0 0 -130 0 -130 -135 0 -135 0 0 130 0 130 135 0
135 0 0 130 0 130 130 0 130 0 0 -130z"/>
<path d="M2060 6210 l0 -130 130 0 130 0 0 130 0 130 -130 0 -130 0 0 -130z"/>
<path d="M2062 2923 l3 -528 125 0 125 0 0 525 0 525 -128 3 -127 3 2 -528z"/>
<path d="M2060 1210 l0 -920 920 0 920 0 0 920 0 920 -920 0 -920 0 0 -920z
m1575 0 l0 -655 -657 -3 -658 -2 0 653 c0 360 3 657 7 660 3 4 299 6 657 5
l651 -3 0 -655z"/>
<path d="M2582 1208 l3 -393 390 0 390 0 3 393 2 392 -395 0 -395 0 2 -392z"/>
</g>
</svg>
