<?xml version="1.0" standalone="no"?>
<!DOCTYPE svg PUBLIC "-//W3C//DTD SVG 20010904//EN"
 "http://www.w3.org/TR/2001/REC-SVG-20010904/DTD/svg10.dtd">
<svg version="1.0" xmlns="http://www.w3.org/2000/svg"
 width="1280.000000pt" height="1278.000000pt" viewBox="0 0 1280.000000 1278.000000"
 preserveAspectRatio="xMidYMid meet">

<g transform="translate(0.000000,1278.000000) scale(0.100000,-0.100000)"
fill="#000000" stroke="none">
<path d="M6952 12719 c-13 -5 -62 -12 -108 -15 -46 -4 -84 -10 -84 -15 0 -4
-26 -15 -57 -25 -32 -10 -60 -20 -63 -24 -3 -3 -19 -15 -36 -25 -47 -30 -95
-75 -133 -125 -63 -83 -79 -84 -133 -9 -46 64 -178 169 -213 169 -8 0 -17 5
-20 10 -3 6 -15 10 -26 10 -11 0 -30 6 -42 14 -19 12 -120 27 -197 28 -59 1
-177 -15 -207 -28 -17 -8 -41 -14 -52 -14 -19 0 -38 -7 -81 -32 -8 -4 -31 -16
-50 -25 -29 -15 -109 -75 -170 -127 -44 -39 -136 -164 -161 -219 -5 -12 -18
-35 -28 -52 -11 -16 -20 -42 -20 -57 -1 -24 -11 -52 -44 -125 -5 -12 -10 -108
-10 -215 0 -160 3 -202 18 -248 10 -30 22 -59 26 -65 5 -5 9 -19 9 -32 0 -21
8 -41 32 -83 4 -8 14 -27 21 -41 22 -45 151 -250 174 -275 12 -13 28 -33 37
-45 19 -27 111 -132 152 -173 119 -119 245 -236 321 -298 48 -39 99 -82 112
-95 13 -12 27 -23 31 -23 4 0 16 -8 28 -17 52 -45 64 -54 102 -79 22 -15 40
-31 40 -35 0 -5 5 -9 10 -9 13 0 107 -61 138 -89 12 -12 28 -21 34 -21 6 0 26
-11 44 -25 40 -30 73 -32 104 -5 13 11 34 23 47 26 13 4 23 9 23 13 0 9 137
101 150 101 6 0 10 4 10 9 0 5 16 19 35 31 20 12 41 27 48 34 6 6 37 29 67 51
30 21 62 46 71 54 19 18 42 38 119 100 30 24 89 77 130 117 41 40 100 96 130
126 67 64 225 248 261 303 114 175 189 311 189 345 0 9 5 21 11 27 14 14 27
72 40 173 10 79 2 338 -11 355 -4 6 -11 31 -14 57 -4 26 -11 50 -17 53 -5 4
-9 15 -9 25 0 25 -61 139 -116 215 -46 65 -82 103 -138 150 -20 17 -45 38 -56
47 -10 9 -39 26 -64 38 -25 11 -48 24 -51 30 -3 5 -17 10 -30 10 -13 0 -27 5
-30 10 -3 6 -13 10 -22 10 -8 0 -29 6 -46 14 -18 8 -65 17 -105 20 -41 3 -79
9 -85 14 -7 6 -21 6 -35 1z m-324 -483 c15 -8 42 -20 61 -27 42 -16 141 -111
164 -158 9 -19 17 -44 17 -57 0 -12 5 -24 12 -26 29 -10 30 -285 2 -309 -8 -6
-14 -19 -14 -29 0 -20 -27 -77 -41 -85 -14 -9 -11 -43 4 -52 23 -13 87 -114
87 -136 0 -11 8 -29 18 -40 14 -16 17 -40 17 -157 0 -117 -3 -141 -17 -157
-10 -11 -18 -27 -18 -35 0 -55 -100 -163 -193 -207 -36 -17 -75 -31 -87 -31
-12 0 -30 -5 -41 -11 -31 -16 -569 -13 -585 3 -10 9 -14 57 -15 171 l-1 157
-83 0 c-97 0 -95 -2 -95 106 0 108 5 114 94 114 58 0 75 3 80 16 3 9 6 224 6
478 0 346 3 465 12 474 19 19 581 17 616 -2z"/>
<path d="M6210 11815 l0 -215 147 0 c111 0 160 4 202 17 31 10 58 21 59 25 2
5 10 8 17 8 7 0 21 12 30 27 14 21 18 48 18 135 0 124 -7 144 -64 179 -21 13
-39 27 -39 32 0 4 -83 7 -185 7 l-185 0 0 -215z"/>
<path d="M6217 11393 c-4 -3 -7 -33 -7 -65 l0 -58 135 0 c158 0 155 2 155
-114 0 -113 10 -106 -151 -106 l-139 0 0 -65 0 -65 179 0 c137 0 181 3 190 13
6 8 28 19 49 25 21 6 53 28 72 47 l35 36 -1 112 c-1 164 -22 196 -150 227 -59
15 -115 20 -220 20 -77 0 -144 -3 -147 -7z"/>
<path d="M1448 11764 c-5 -4 -8 -123 -8 -265 l0 -259 26 -6 c14 -4 79 -4 144
-2 106 5 123 8 165 32 38 23 52 40 76 89 25 53 29 74 29 147 0 73 -4 94 -29
147 -24 50 -38 66 -78 90 -45 26 -56 28 -183 31 -74 2 -138 0 -142 -4z m270
-101 c44 -33 62 -80 62 -163 0 -122 -44 -180 -143 -188 -97 -8 -97 -7 -97 183
0 198 1 200 93 192 36 -3 70 -13 85 -24z"/>
<path d="M2145 11754 c-60 -31 -94 -65 -122 -121 -24 -49 -28 -70 -28 -138 1
-68 5 -89 30 -138 51 -104 131 -145 258 -133 95 9 157 55 200 148 25 54 23
195 -3 253 -23 51 -77 106 -125 129 -44 21 -170 21 -210 0z m165 -79 c16 -8
42 -32 57 -52 26 -34 28 -43 28 -129 0 -88 -1 -94 -31 -131 -73 -90 -196 -75
-251 31 -33 64 -15 206 33 253 42 43 113 54 164 28z"/>
<path d="M2627 11763 c-4 -3 -7 -122 -7 -264 l0 -259 25 -6 c14 -3 36 -3 50 0
l25 6 0 165 c0 90 3 166 8 169 19 11 59 -48 191 -284 32 -58 37 -61 91 -58
l45 3 0 265 0 265 -45 0 -45 0 -2 -150 c-3 -173 -7 -202 -27 -185 -8 6 -40 54
-71 108 -32 53 -75 127 -97 165 l-40 67 -47 0 c-26 0 -51 -3 -54 -7z"/>
<path d="M3334 11733 c-9 -21 -24 -65 -35 -98 -10 -33 -23 -69 -28 -80 -9 -19
-25 -65 -81 -230 -31 -89 -27 -99 32 -93 33 3 38 10 62 71 l15 37 100 0 c92 0
101 -2 115 -22 9 -12 16 -30 16 -40 0 -27 29 -48 65 -48 59 0 61 -13 -43 285
-100 285 -82 255 -147 255 -54 0 -55 -1 -71 -37z m111 -197 c15 -46 25 -91 22
-100 -5 -12 -20 -16 -61 -16 -67 0 -81 16 -62 70 7 19 19 53 26 75 14 45 29
67 40 60 4 -2 19 -42 35 -89z"/>
<path d="M3714 11756 c-3 -8 -4 -25 -2 -38 3 -21 9 -23 70 -26 38 -2 71 -8 77
-16 7 -8 12 -94 13 -227 l3 -214 29 -3 c15 -2 39 -1 52 2 l24 6 2 223 3 222
75 5 75 5 0 35 0 35 -208 3 c-174 2 -208 0 -213 -12z"/>
<path d="M4245 11757 c-3 -7 -4 -127 -3 -267 l3 -255 188 -3 187 -2 11 24 c24
51 12 56 -134 56 -90 0 -137 4 -145 12 -16 16 -16 123 1 136 7 6 64 13 128 14
l114 3 3 38 3 37 -115 0 c-63 0 -121 3 -130 6 -20 8 -23 103 -4 122 8 8 54 12
140 12 l128 0 0 40 0 40 -185 0 c-141 0 -187 -3 -190 -13z"/>
<path d="M8265 11757 c-3 -7 -4 -127 -3 -267 l3 -255 156 1 c155 0 157 0 193
28 82 62 87 143 14 222 l-29 31 31 38 c44 55 43 114 -3 160 -18 18 -51 38 -72
44 -58 16 -284 15 -290 -2z m255 -85 c27 -13 36 -24 38 -47 5 -48 -16 -66 -85
-72 -34 -3 -73 -3 -87 1 -24 6 -26 11 -26 59 0 29 5 58 12 65 18 18 108 15
148 -6z m14 -217 c61 -26 63 -100 2 -129 -33 -16 -129 -22 -160 -10 -12 5 -16
21 -16 73 0 37 3 71 7 74 12 13 131 7 167 -8z"/>
<path d="M8817 11764 c-4 -4 -7 -123 -7 -265 l0 -259 25 -6 c14 -3 36 -3 50 0
l25 6 -2 263 -3 262 -40 3 c-23 2 -44 0 -48 -4z"/>
<path d="M9024 11756 c-3 -8 -4 -25 -2 -38 3 -21 9 -23 76 -28 50 -3 76 -10
82 -20 5 -8 10 -108 10 -222 l0 -208 25 -6 c14 -3 36 -3 50 0 l25 6 0 215 c0
160 3 216 13 222 6 4 41 10 77 13 l65 5 0 35 0 35 -208 3 c-174 2 -208 0 -213
-12z"/>
<path d="M9662 11753 c-76 -42 -116 -102 -132 -200 -25 -153 48 -299 163 -325
97 -22 177 -5 238 52 36 34 42 45 43 82 1 41 0 43 -30 46 -28 3 -36 -3 -67
-47 -39 -54 -72 -68 -135 -56 -76 14 -115 80 -115 189 1 124 57 196 152 196
40 0 48 -4 91 -51 39 -42 51 -50 76 -47 27 3 29 6 28 41 -1 42 -26 75 -86 113
-31 20 -51 24 -115 24 -56 0 -88 -5 -111 -17z"/>
<path d="M10224 11739 c-36 -22 -61 -49 -85 -88 -32 -54 -33 -60 -33 -156 0
-95 2 -104 30 -150 61 -99 144 -136 269 -120 138 17 226 164 198 328 -14 83
-53 144 -116 185 -47 29 -59 32 -132 32 -72 0 -85 -3 -131 -31z m207 -72 c50
-33 74 -88 74 -172 0 -122 -54 -189 -152 -189 -97 0 -148 66 -148 194 0 62 4
82 24 114 47 75 134 99 202 53z"/>
<path d="M10742 11503 l3 -268 24 -3 c12 -2 34 -1 47 2 l24 6 -2 263 -3 262
-48 3 -47 3 2 -268z"/>
<path d="M10977 11763 c-4 -3 -7 -122 -7 -264 l0 -259 24 -6 c13 -3 35 -4 47
-2 24 3 24 4 30 173 3 94 6 171 7 173 10 15 60 -62 201 -311 17 -30 42 -40 87
-35 l29 3 0 265 0 265 -45 0 -45 0 -5 -167 c-3 -91 -8 -169 -11 -173 -6 -6
-101 144 -164 260 -42 75 -53 85 -100 85 -23 0 -45 -3 -48 -7z"/>
<path d="M3758 9323 c1460 -2 3845 -2 5300 0 1456 1 262 2 -2653 2 -2915 0
-4106 -1 -2647 -2z"/>
<path d="M2080 7650 l0 -1050 1043 2 1042 3 3 1048 2 1047 -1045 0 -1045 0 0
-1050z m1785 0 l0 -735 -734 -3 c-581 -2 -736 0 -743 10 -9 15 -11 1428 -2
1452 6 15 78 16 743 14 l736 -3 0 -735z"/>
<path d="M2697 8083 c-4 -3 -7 -208 -7 -454 0 -398 2 -448 16 -453 28 -11 854
-7 875 4 18 10 19 26 19 448 0 327 -3 441 -12 450 -9 9 -122 12 -448 12 -240
0 -440 -3 -443 -7z"/>
<path d="M4778 8548 l-3 -153 -145 -5 -145 -5 -3 -147 -3 -148 135 0 c74 0
141 -3 150 -6 24 -9 24 -289 0 -298 -9 -3 -76 -6 -150 -6 l-135 0 3 -147 3
-148 298 -3 297 -2 0 -428 c0 -320 3 -431 12 -440 8 -8 56 -12 149 -12 116 0
138 2 143 16 3 9 6 207 6 440 l0 424 135 0 135 0 0 -149 c0 -127 2 -150 16
-155 9 -3 76 -6 150 -6 l134 0 0 -130 0 -130 -134 0 c-74 0 -141 -3 -150 -6
-14 -5 -16 -55 -16 -454 0 -399 2 -449 16 -454 20 -8 248 -8 268 0 14 5 16 55
16 455 l0 449 150 0 150 0 -2 -602 -3 -603 -430 -5 -430 -5 -5 -145 -5 -145
-144 -3 c-109 -2 -146 1 -153 10 -9 15 -11 548 -2 572 5 14 27 16 143 16 93 0
141 4 149 12 17 17 17 269 0 286 -9 9 -188 12 -744 12 -403 0 -739 -3 -748 -6
-14 -5 -16 -28 -16 -155 l0 -149 -135 0 -135 0 0 143 c0 98 -4 147 -12 155 -9
9 -192 12 -760 12 l-748 0 0 -155 0 -155 303 -2 302 -3 5 -145 5 -145 147 -3
147 -3 3 -147 3 -147 148 -3 147 -3 0 -134 0 -135 -300 0 -300 0 0 123 c0 82
-4 127 -12 135 -17 17 -269 17 -286 0 -8 -8 -12 -53 -12 -135 l0 -123 -150 0
-150 0 0 -1350 0 -1350 150 0 150 0 0 724 c0 398 3 731 6 740 9 24 289 24 298
0 3 -9 6 -76 6 -150 l0 -134 138 0 c75 0 142 -4 149 -8 8 -5 13 -48 15 -132
l3 -125 289 -3 c193 -1 294 -6 303 -13 10 -9 13 -73 13 -305 l0 -294 -452 -2
-453 -3 -3 -148 -3 -147 453 2 453 3 3 148 3 147 134 0 134 0 3 -147 3 -148
290 -5 c160 -3 296 -9 303 -13 9 -6 12 -78 12 -303 l0 -294 150 0 150 0 0
-135 0 -134 -147 -3 -148 -3 -3 -742 -2 -743 740 0 741 0 -3 133 -3 132 -125
2 c-188 4 -170 -12 -170 158 0 170 -18 154 170 158 l125 2 0 145 0 145 -280 5
-280 5 -5 145 -5 145 -289 3 c-193 1 -294 6 -303 13 -10 9 -13 48 -13 155 l0
144 150 0 150 0 0 135 0 134 153 3 152 3 0 145 0 145 -152 3 -153 3 0 139 c0
113 3 141 16 154 14 14 50 16 287 14 l272 -3 5 -150 5 -150 145 0 145 0 3 153
3 152 149 0 150 0 0 -282 c0 -156 3 -293 6 -305 l6 -23 299 0 299 0 0 -119 c0
-66 3 -126 6 -135 5 -14 28 -16 155 -16 l149 0 0 -155 0 -155 -302 -2 -303 -3
-3 -587 -2 -588 305 0 306 0 -3 133 -3 132 -139 3 c-82 1 -145 7 -153 14 -18
15 -19 568 -1 586 8 8 57 12 155 12 l143 0 0 -150 0 -150 124 0 c90 0 127 -4
134 -13 7 -8 13 -71 14 -153 l3 -139 439 -3 c316 -1 443 1 452 9 11 9 14 46
14 155 l0 144 150 0 150 0 0 -143 c0 -98 4 -147 12 -155 9 -9 87 -12 290 -12
l278 0 0 -135 0 -135 455 0 455 0 0 135 0 134 148 3 147 3 5 300 c3 165 7 301
8 303 1 1 61 2 132 2 l130 0 0 440 0 440 -124 0 c-90 0 -127 -4 -134 -13 -7
-7 -13 -66 -14 -133 l-3 -119 -450 0 -450 0 0 280 0 280 148 3 147 3 0 -138
c0 -76 4 -144 8 -151 7 -9 44 -12 153 -10 l144 3 5 145 5 145 283 3 282 2 0
155 0 154 -132 3 -133 3 -3 125 c-4 185 -16 170 138 170 l130 0 0 150 0 150
-285 0 -285 0 0 -134 c0 -74 -3 -141 -6 -150 -5 -14 -29 -16 -155 -16 l-149 0
2 303 3 302 438 3 437 2 0 285 0 285 -440 0 -440 0 0 134 c0 74 3 141 6 150 5
14 27 16 143 16 93 0 141 4 149 12 9 9 12 125 12 460 l0 447 148 3 147 3 3
124 c2 93 -1 126 -10 133 -7 4 -75 8 -150 8 l-138 0 0 150 0 150 285 0 285 0
0 150 0 150 -124 0 c-90 0 -127 4 -134 13 -7 8 -13 71 -14 153 l-3 139 -145 0
-145 0 -3 -303 -2 -302 -303 2 -302 3 -3 148 -3 147 138 0 c76 0 144 4 151 8
9 7 12 44 10 153 l-3 144 -125 3 c-186 4 -170 19 -170 -158 l0 -150 -150 0
-150 0 0 144 c0 110 -3 146 -14 155 -9 8 -54 11 -132 9 l-119 -3 -5 -150 -5
-150 -152 -3 -152 -3 -3 153 -3 153 -145 5 -145 5 -5 735 -5 735 -140 3 c-77
1 -144 7 -150 13 -5 5 -12 74 -15 152 l-5 142 -145 5 -145 5 -5 145 -5 145
-585 5 -585 5 -3 153 -3 152 -154 0 -155 0 0 -455 0 -455 -22 -5 c-13 -3 -79
-6 -148 -8 l-125 -2 -3 -147 -3 -148 -149 0 -150 0 0 300 0 300 23 5 c12 3 78
6 147 8 l125 2 0 145 0 145 -280 0 -280 0 -5 -145 -5 -145 -144 -3 c-109 -2
-146 1 -153 10 -4 7 -8 145 -8 306 l0 292 -150 0 -149 0 -3 -152z m2660 -470
c8 -8 12 -57 12 -155 l0 -142 148 -3 147 -3 3 -147 3 -147 147 -3 147 -3 3
-742 2 -743 305 0 305 0 0 -134 c0 -74 3 -141 6 -150 5 -14 28 -16 155 -16
l149 0 0 150 0 150 135 0 135 0 0 -134 c0 -74 -3 -141 -6 -150 -5 -13 -27 -16
-135 -16 l-129 0 0 -150 0 -150 116 0 c63 0 124 -5 135 -10 17 -10 19 -22 19
-135 l0 -125 300 0 300 0 0 116 c0 63 5 124 10 135 10 17 23 19 155 19 l145 0
0 -135 0 -135 -155 0 -154 0 -3 -152 -3 -153 -275 -3 c-151 -1 -285 0 -297 3
-23 5 -23 8 -23 155 l0 150 -135 0 -135 0 0 135 0 135 -144 0 c-110 0 -146 -3
-155 -14 -8 -9 -11 -54 -9 -132 l3 -119 150 -5 150 -5 3 -757 2 -758 135 0
134 0 3 148 3 147 298 3 297 2 0 -285 0 -286 -147 3 -148 3 -3 125 c-2 84 -7
127 -15 132 -7 4 -74 8 -149 8 l-138 0 0 -119 c0 -66 -3 -126 -6 -135 -5 -13
-27 -16 -135 -16 l-128 0 -3 -152 -3 -153 -139 -3 c-93 -2 -143 1 -152 9 -11
9 -14 45 -14 155 l0 143 -147 3 -148 3 -3 119 c-1 67 -7 126 -14 133 -8 10
-46 13 -144 13 -122 0 -134 -2 -144 -19 -6 -12 -10 -123 -10 -290 l0 -270 153
-3 152 -3 0 -145 0 -145 -150 0 -150 0 -3 147 -3 148 -150 0 -150 0 3 -147 3
-148 148 -3 147 -3 0 -455 0 -455 -147 3 -148 3 -5 145 -5 145 -147 3 -148 3
0 -286 0 -285 298 -2 297 -3 5 -142 c3 -78 10 -147 15 -152 7 -7 207 -12 590
-13 l580 -3 3 -125 c4 -184 16 -169 -136 -172 l-127 -3 -2 -125 c-4 -188 13
-170 -163 -170 l-149 0 -3 147 -3 148 -145 0 -145 0 -3 -148 -3 -147 -149 0
c-176 0 -159 -18 -163 170 l-2 125 -145 5 -145 5 -5 145 -5 145 -147 3 -148 3
0 -135 c0 -74 -3 -141 -6 -150 -5 -13 -27 -16 -135 -16 l-129 0 0 150 0 150
135 0 135 0 0 155 0 155 -135 0 -135 0 0 123 c0 82 -4 127 -12 135 -8 8 -57
12 -155 12 l-143 0 0 134 c0 74 3 141 6 150 5 14 40 16 290 16 l284 0 0 143
c0 98 -4 147 -12 155 -9 9 -153 12 -588 12 -317 0 -579 2 -581 4 -2 2 -3 70
-1 150 l3 145 147 3 147 3 3 148 3 147 -150 0 c-176 0 -161 17 -161 -172 l0
-127 -147 -3 -148 -3 -3 -148 -3 -147 -149 0 -150 0 0 300 0 300 134 0 c74 0
141 3 150 6 14 5 16 28 16 149 0 121 -2 144 -16 149 -9 3 -137 6 -285 6 l-269
0 0 740 0 739 -152 3 -153 3 -3 133 c-1 80 2 140 8 152 10 18 21 20 143 20 90
0 137 -4 145 -12 8 -8 12 -57 12 -155 l0 -143 135 0 135 0 0 284 c0 250 2 285
16 290 9 3 208 6 444 6 353 0 430 -2 439 -14 8 -9 11 -54 9 -132 l-3 -119
-143 -5 c-112 -4 -145 -8 -152 -20 -5 -8 -10 -77 -10 -152 l0 -138 -300 0
-301 0 3 -147 3 -148 145 -5 145 -5 3 -152 3 -153 454 0 455 0 0 -150 0 -150
155 0 155 0 0 150 0 150 269 0 c148 0 276 3 285 6 14 5 16 27 16 143 0 93 4
141 12 149 19 19 571 17 587 -2 8 -9 11 -59 9 -152 l-3 -139 -145 -3 c-100 -2
-147 -6 -152 -15 -13 -21 -9 -251 5 -270 11 -15 29 -17 152 -15 l140 3 3 148
3 147 137 0 c75 0 143 4 150 8 9 7 12 74 10 303 l-3 294 -125 2 c-69 2 -135 5
-147 8 l-23 5 -2 433 -3 432 -150 5 -150 5 -3 148 -3 147 -283 0 c-157 0 -291
3 -300 6 -14 5 -16 27 -16 143 0 93 -4 141 -12 149 -9 9 -87 12 -290 12 l-278
0 0 -149 c0 -127 -2 -150 -16 -155 -30 -12 -259 -7 -272 6 -8 8 -12 56 -12
149 0 116 2 138 16 143 9 3 76 6 150 6 l134 0 0 150 0 149 -147 3 -148 3 0
145 0 145 148 3 147 3 0 -151 0 -150 143 0 c98 0 147 4 155 12 8 8 12 56 12
150 l0 138 135 0 134 0 3 -147 3 -148 145 0 145 0 3 144 c2 109 -1 147 -10
153 -7 4 -67 8 -133 8 -66 -1 -128 -1 -137 -1 -16 1 -18 14 -18 131 l0 130
134 0 c74 0 141 3 150 6 14 5 16 28 16 155 l0 148 -147 3 -148 3 -3 148 -3
147 -134 0 -135 0 0 -134 c0 -74 -3 -141 -6 -150 -5 -14 -28 -16 -155 -16
l-149 0 0 -149 0 -150 -131 -3 c-72 -2 -139 0 -150 4 -18 7 -19 16 -17 150 l3
143 148 3 147 3 0 292 c0 215 3 296 12 305 9 9 84 12 278 12 194 0 269 -3 278
-12z m-2050 -450 l3 -148 -156 0 -155 0 0 134 c0 74 3 142 6 150 6 14 26 16
153 14 l146 -3 3 -147z m870 -300 l3 -148 -131 -1 c-71 -1 -138 -2 -147 -3
-16 -1 -18 13 -21 152 l-3 153 148 -3 148 -3 3 -147z m920 -290 c2 -111 1
-127 -14 -130 -9 -2 -79 -2 -155 0 l-139 3 0 130 0 130 153 -3 152 -3 3 -127z
m-3576 -1195 l3 -148 133 -3 132 -3 0 151 0 150 150 0 151 0 -3 -147 -3 -148
-147 -3 -148 -3 0 -149 0 -150 134 0 c74 0 141 -3 150 -6 13 -5 16 -27 16
-135 l0 -129 155 0 155 0 0 129 c0 108 3 130 16 135 23 9 257 7 272 -2 9 -7
12 -40 10 -133 l-3 -124 -147 -3 -148 -3 0 -142 c0 -98 -4 -147 -12 -155 -8
-8 -57 -12 -155 -12 l-143 0 0 -150 0 -150 -150 0 -150 0 0 -155 0 -155 150 0
151 0 -3 -147 -3 -148 -145 0 -145 0 -3 148 -3 147 -122 0 c-67 0 -128 4 -135
8 -9 7 -12 44 -10 153 l3 144 133 3 132 3 0 149 0 150 -287 2 -288 3 0 150 0
150 288 3 287 2 0 135 0 135 -290 0 -289 0 -3 148 -3 147 -147 3 -148 3 0 143
c0 78 3 146 7 149 3 4 140 7 304 7 l298 0 3 -147z m1173 -3 l0 -145 -145 0
-145 0 -3 148 -3 148 148 -3 148 -3 0 -145z m2669 -166 c3 -9 6 -137 6 -285
l0 -269 288 0 c158 0 293 -4 300 -8 9 -7 12 -44 10 -153 l-3 -144 -297 -3
-298 -2 0 -134 c0 -74 -3 -141 -6 -150 -5 -13 -27 -16 -135 -16 l-128 0 -3
-152 -3 -153 -150 0 -150 0 -3 139 c-2 93 1 143 9 152 9 11 45 14 155 14 l145
0 -3 148 -3 147 -139 3 c-82 1 -145 7 -153 14 -19 15 -19 271 0 286 8 7 71 13
153 14 l139 3 3 270 c1 149 4 276 7 283 3 9 38 12 129 12 104 0 125 -3 130
-16z m606 -134 l0 -151 -147 3 -148 3 -3 134 c-1 74 0 141 2 148 4 10 41 13
151 13 l145 0 0 -150z m-5362 -1025 c2 -264 1 -291 -15 -302 -27 -20 -257 -18
-277 3 -14 13 -16 54 -16 289 0 150 3 281 6 289 6 14 26 16 153 14 l146 -3 3
-290z m602 -4 c0 -263 -2 -300 -16 -305 -30 -12 -259 -7 -272 6 -9 9 -12 89
-12 298 0 158 3 290 7 293 3 4 71 7 150 7 l143 0 0 -299z m1790 -441 l0 -741
-147 3 -148 3 -5 280 -5 280 -145 5 -145 5 0 300 0 300 145 5 145 5 3 135 c1
74 4 141 7 148 3 9 43 12 150 12 l145 0 0 -740z m1485 590 l0 -145 -147 -3
-148 -3 0 151 0 151 148 -3 147 -3 0 -145z m-2970 -910 l0 -145 -144 -3 c-109
-2 -146 1 -153 10 -12 19 -10 246 2 269 10 18 21 19 153 17 l142 -3 0 -145z
m559 -156 c13 -5 16 -27 16 -135 l0 -129 143 0 c98 0 147 -4 155 -12 8 -8 12
-57 12 -155 l0 -143 453 -2 452 -3 0 -145 0 -145 -450 0 -450 0 -3 148 -3 147
-154 0 -154 0 -3 -147 -3 -148 -148 -3 -148 -3 3 148 3 148 148 3 147 3 0 154
0 154 -147 3 -148 3 -3 124 c-2 93 1 126 10 133 15 9 249 11 272 2z m5080
-590 c9 -23 7 -257 -2 -272 -7 -9 -40 -12 -133 -10 l-124 3 -3 148 -3 147 130
0 c108 0 130 -3 135 -16z m606 -434 l0 -151 -147 3 -148 3 -3 134 c-1 74 0
141 2 148 4 10 41 13 151 13 l145 0 0 -150z m-619 -160 c18 -10 19 -26 19
-428 0 -229 -4 -423 -8 -430 -7 -10 -101 -12 -438 -10 l-429 3 -3 429 c-2 337
0 431 10 438 20 12 826 10 849 -2z m-4141 -450 l0 -150 -150 0 -150 0 0 143
c0 79 3 147 7 150 3 4 71 7 150 7 l143 0 0 -150z m4760 -1014 c0 -156 3 -291
6 -300 5 -14 27 -16 143 -16 93 0 141 -4 149 -12 8 -8 12 -57 12 -155 l0 -143
-455 0 -455 0 0 150 c0 176 -18 159 170 163 l125 2 3 285 c1 157 4 291 7 298
3 9 43 12 150 12 l145 0 0 -284z m-4763 -146 c4 -187 -11 -170 151 -170 94 0
142 -4 150 -12 17 -17 17 -269 0 -286 -17 -17 -569 -17 -586 0 -13 13 -18 579
-5 592 4 3 70 5 147 4 l141 -3 2 -125z"/>
<path d="M5660 3900 l0 -300 605 0 605 0 0 -135 0 -135 -134 0 c-74 0 -141 -3
-150 -6 -14 -5 -16 -29 -16 -155 l0 -150 148 3 147 3 3 152 3 152 152 3 152 3
3 133 3 132 134 0 135 0 0 -284 c0 -250 2 -285 16 -290 9 -3 76 -6 150 -6
l134 0 0 284 c0 250 -2 285 -16 290 -9 3 -76 6 -150 6 l-134 0 0 134 c0 74 -3
141 -6 150 -5 13 -27 16 -135 16 l-129 0 0 -150 0 -150 -155 0 -155 0 0 150 0
150 -449 0 c-400 0 -450 2 -455 16 -3 9 -6 76 -6 150 l0 134 -150 0 -150 0 0
-300z"/>
<path d="M8672 3588 c-8 -8 -12 -53 -12 -135 l0 -123 155 0 155 0 0 135 0 135
-143 0 c-98 0 -147 -4 -155 -12z"/>
<path d="M3870 4965 l0 -155 150 0 150 0 0 155 0 155 -150 0 -150 0 0 -155z"/>
<path d="M8664 2097 c-2 -7 -3 -74 -2 -148 l3 -134 144 -3 c109 -2 146 1 153
10 9 15 11 249 2 272 -5 14 -28 16 -150 16 -110 0 -146 -3 -150 -13z"/>
<path d="M8050 8562 c0 -95 4 -144 13 -155 11 -15 29 -17 152 -15 l140 3 3
153 3 152 -156 0 -155 0 0 -138z"/>
<path d="M8660 7666 c0 -569 3 -1041 6 -1050 6 -14 106 -16 1030 -16 l1024 0
0 1050 0 1050 -1030 0 -1030 0 0 -1034z m1788 -18 l2 -737 -22 -3 c-13 -2
-346 -2 -740 0 l-718 2 0 733 c0 404 3 737 7 740 3 4 335 6 737 5 l731 -3 3
-737z"/>
<path d="M9247 8083 c-4 -3 -7 -208 -7 -454 0 -398 2 -448 16 -453 28 -11 854
-7 875 4 18 10 19 26 19 448 0 327 -3 441 -12 450 -9 9 -122 12 -448 12 -240
0 -440 -3 -443 -7z"/>
<path d="M4491 7171 c-8 -5 -11 -83 -9 -287 l3 -279 145 0 145 0 3 274 c2 198
-1 277 -9 288 -10 11 -41 14 -139 12 -70 0 -132 -4 -139 -8z"/>
<path d="M10454 4797 c-2 -7 -3 -74 -2 -148 l3 -134 133 -3 132 -3 0 151 0
150 -130 0 c-98 0 -132 -3 -136 -13z"/>
<path d="M2080 1080 l0 -1030 1045 0 1045 0 0 1030 0 1030 -1045 0 -1045 0 0
-1030z m1774 724 c14 -6 16 -79 16 -733 0 -552 -3 -730 -12 -739 -17 -17
-1449 -17 -1466 0 -17 17 -17 1449 0 1466 9 9 185 12 729 12 395 0 724 -3 733
-6z"/>
<path d="M2697 1533 c-4 -3 -7 -208 -7 -455 l0 -448 453 2 452 3 3 439 c1 316
-1 443 -9 452 -9 12 -91 14 -449 14 -240 0 -440 -3 -443 -7z"/>
<path d="M5667 1804 c-4 -4 -7 -132 -7 -285 0 -243 2 -278 16 -283 9 -3 141
-6 294 -6 266 0 280 1 290 19 15 29 13 253 -2 274 -11 14 -36 17 -153 19
l-140 3 -5 130 -5 130 -141 3 c-77 1 -143 -1 -147 -4z"/>
</g>
</svg>
